<?xml version="1.0" encoding="UTF-8" standalone="no"?>
<!DOCTYPE svg PUBLIC "-//W3C//DTD SVG 1.1//EN"
 "http://www.w3.org/Graphics/SVG/1.1/DTD/svg11.dtd">
<!-- Generated by graphviz version 2.43.0 (0)
 -->
<!-- Title: Changeme Pages: 1 -->
<svg width="692pt" height="920pt"
 viewBox="0.00 0.00 692.00 919.50" xmlns="http://www.w3.org/2000/svg" xmlns:xlink="http://www.w3.org/1999/xlink">
<g id="graph0" class="graph" transform="scale(1 1) rotate(0) translate(4 915.5)">
<title>Changeme</title>
<style>@font-face{font-family:"Lato";font-style:normal;font-weight:400;src:local("Lato Regular"),local("Lato-Regular"),url(../_static/fonts/Lato-Regular.ttf) format("truetype")}</style><polygon fill="white" stroke="transparent" points="-4,4 -4,-915.5 688,-915.5 688,4 -4,4"/>
<!-- organization -->
<g id="organization" class="node">
<title>organization</title>
<style>@font-face{font-family:"Lato";font-style:normal;font-weight:400;src:local("Lato Regular"),local("Lato-Regular"),url(../_static/fonts/Lato-Regular.ttf) format("truetype")}</style><polygon fill="white" stroke="transparent" points="320,-576.5 0,-576.5 0,-216.5 320,-216.5 320,-576.5"/>
<polygon fill="black" stroke="transparent" points="8,-220.5 8,-572.5 312,-572.5 312,-220.5 8,-220.5"/>
<polygon fill="#77dd77" stroke="transparent" points="8,-534.5 8,-572.5 312,-572.5 312,-534.5 8,-534.5"/>
<text text-anchor="start" x="131" y="-563.5" font-family="Lato" font-weight="bold" font-size="10.00">organization</text>
<text text-anchor="start" x="36" y="-555.1" font-family="Lato" font-size="8.00">The details about each organization delivering services. Each service</text>
<text text-anchor="start" x="35.5" y="-547.1" font-family="Lato" font-size="8.00">should be linked to the organization responsible for its delivery. One</text>
<text text-anchor="start" x="88" y="-539.1" font-family="Lato" font-size="8.00">organization may deliver many services.</text>
<polygon fill="#dddddd" stroke="transparent" points="8,-512.5 8,-534.5 94,-534.5 94,-512.5 8,-512.5"/>
<text text-anchor="start" x="10" y="-522.6" font-family="Lato" font-weight="bold" font-size="8.00">id</text>
<polygon fill="#dddddd" stroke="transparent" points="94,-512.5 94,-534.5 126,-534.5 126,-512.5 94,-512.5"/>
<text text-anchor="start" x="96" y="-521.6" font-family="Lato" font-size="8.00">string</text>
<polygon fill="#dddddd" stroke="transparent" points="126,-512.5 126,-534.5 312,-534.5 312,-512.5 126,-512.5"/>
<text text-anchor="start" x="128" y="-526.1" font-family="Lato" font-size="8.00">UNIQ; The identifier for the organization. Each</text>
<text text-anchor="start" x="128" y="-517.1" font-family="Lato" font-size="8.00">organization must have a unique identifier.</text>
<polygon fill="#dddddd" stroke="transparent" points="8,-499.5 8,-512.5 94,-512.5 94,-499.5 8,-499.5"/>
<text text-anchor="start" x="10" y="-505.1" font-family="Lato" font-weight="bold" font-size="8.00">name</text>
<polygon fill="#dddddd" stroke="transparent" points="94,-499.5 94,-512.5 126,-512.5 126,-499.5 94,-499.5"/>
<text text-anchor="start" x="96" y="-504.1" font-family="Lato" font-size="8.00">string</text>
<polygon fill="#dddddd" stroke="transparent" points="126,-499.5 126,-512.5 312,-512.5 312,-499.5 126,-499.5"/>
<text text-anchor="start" x="128" y="-504.1" font-family="Lato" font-size="8.00">The official or public name of the organization.</text>
<polygon fill="#dddddd" stroke="transparent" points="8,-479.5 8,-499.5 94,-499.5 94,-479.5 8,-479.5"/>
<text text-anchor="start" x="10" y="-488.6" font-family="Lato" font-weight="bold" font-size="8.00">alternate_name</text>
<polygon fill="#dddddd" stroke="transparent" points="94,-479.5 94,-499.5 126,-499.5 126,-479.5 94,-479.5"/>
<text text-anchor="start" x="96" y="-487.6" font-family="Lato" font-size="8.00">string</text>
<polygon fill="#dddddd" stroke="transparent" points="126,-479.5 126,-499.5 312,-499.5 312,-479.5 126,-479.5"/>
<text text-anchor="start" x="128" y="-492.1" font-family="Lato" text-decoration="line-through" font-size="8.00">NULL</text>
<text text-anchor="start" x="148" y="-492.1" font-family="Lato" font-size="8.00">; An (optional) alternative or commonly</text>
<text text-anchor="start" x="128" y="-484.1" font-family="Lato" font-size="8.00">used name for the organization.</text>
<polygon fill="#dddddd" stroke="transparent" points="8,-448.5 8,-479.5 94,-479.5 94,-448.5 8,-448.5"/>
<text text-anchor="start" x="10" y="-463.1" font-family="Lato" font-weight="bold" font-size="8.00">description</text>
<polygon fill="#dddddd" stroke="transparent" points="94,-448.5 94,-479.5 126,-479.5 126,-448.5 94,-448.5"/>
<text text-anchor="start" x="96" y="-462.1" font-family="Lato" font-size="8.00">string</text>
<polygon fill="#dddddd" stroke="transparent" points="126,-448.5 126,-479.5 312,-479.5 312,-448.5 126,-448.5"/>
<text text-anchor="start" x="128" y="-471.1" font-family="Lato" font-size="8.00">A free text description containing a brief summary</text>
<text text-anchor="start" x="128" y="-462.1" font-family="Lato" font-size="8.00">about the organization. It can contain markup such</text>
<text text-anchor="start" x="128" y="-453.1" font-family="Lato" font-size="8.00">as HTML or Markdown.</text>
<polygon fill="#dddddd" stroke="transparent" points="8,-428.5 8,-448.5 94,-448.5 94,-428.5 8,-428.5"/>
<text text-anchor="start" x="10" y="-437.6" font-family="Lato" font-weight="bold" font-size="8.00">email</text>
<polygon fill="#dddddd" stroke="transparent" points="94,-428.5 94,-448.5 126,-448.5 126,-428.5 94,-428.5"/>
<text text-anchor="start" x="96" y="-436.6" font-family="Lato" font-size="8.00">string</text>
<polygon fill="#dddddd" stroke="transparent" points="126,-428.5 126,-448.5 312,-448.5 312,-428.5 126,-428.5"/>
<text text-anchor="start" x="128" y="-441.1" font-family="Lato" text-decoration="line-through" font-size="8.00">NULL</text>
<text text-anchor="start" x="148" y="-441.1" font-family="Lato" font-size="8.00">; The contact e&#45;mail address for the</text>
<text text-anchor="start" x="128" y="-433.1" font-family="Lato" font-size="8.00">organization.</text>
<polygon fill="#dddddd" stroke="transparent" points="8,-408.5 8,-428.5 94,-428.5 94,-408.5 8,-408.5"/>
<text text-anchor="start" x="10" y="-417.6" font-family="Lato" font-weight="bold" font-size="8.00">website</text>
<polygon fill="#dddddd" stroke="transparent" points="94,-408.5 94,-428.5 126,-428.5 126,-408.5 94,-408.5"/>
<text text-anchor="start" x="96" y="-416.6" font-family="Lato" font-size="8.00">string</text>
<polygon fill="#dddddd" stroke="transparent" points="126,-408.5 126,-428.5 312,-428.5 312,-408.5 126,-408.5"/>
<text text-anchor="start" x="128" y="-421.1" font-family="Lato" text-decoration="line-through" font-size="8.00">NULL</text>
<text text-anchor="start" x="148" y="-421.1" font-family="Lato" font-size="8.00">; The URL (website address) of the</text>
<text text-anchor="start" x="128" y="-413.1" font-family="Lato" font-size="8.00">organization.</text>
<polygon fill="#dddddd" stroke="transparent" points="8,-388.5 8,-408.5 94,-408.5 94,-388.5 8,-388.5"/>
<text text-anchor="start" x="10" y="-397.6" font-family="Lato" font-weight="bold" font-size="8.00">tax_status</text>
<polygon fill="#dddddd" stroke="transparent" points="94,-388.5 94,-408.5 126,-408.5 126,-388.5 94,-388.5"/>
<text text-anchor="start" x="96" y="-396.6" font-family="Lato" font-size="8.00">string</text>
<polygon fill="#dddddd" stroke="transparent" points="126,-388.5 126,-408.5 312,-408.5 312,-388.5 126,-388.5"/>
<text text-anchor="start" x="128" y="-401.1" font-family="Lato" text-decoration="line-through" font-size="8.00">NULL</text>
<text text-anchor="start" x="148" y="-401.1" font-family="Lato" font-size="8.00">; DEPRECATED: Government assigned tax</text>
<text text-anchor="start" x="128" y="-393.1" font-family="Lato" font-size="8.00">designation for tax&#45;exempt organizations.</text>
<polygon fill="#dddddd" stroke="transparent" points="8,-360.5 8,-388.5 94,-388.5 94,-360.5 8,-360.5"/>
<text text-anchor="start" x="10" y="-373.6" font-family="Lato" font-weight="bold" font-size="8.00">tax_id</text>
<polygon fill="#dddddd" stroke="transparent" points="94,-360.5 94,-388.5 126,-388.5 126,-360.5 94,-360.5"/>
<text text-anchor="start" x="96" y="-372.6" font-family="Lato" font-size="8.00">string</text>
<polygon fill="#dddddd" stroke="transparent" points="126,-360.5 126,-388.5 312,-388.5 312,-360.5 126,-360.5"/>
<text text-anchor="start" x="128" y="-381.1" font-family="Lato" text-decoration="line-through" font-size="8.00">NULL</text>
<text text-anchor="start" x="148" y="-381.1" font-family="Lato" font-size="8.00">; DEPRECATED: A government issued</text>
<text text-anchor="start" x="128" y="-373.1" font-family="Lato" font-size="8.00">identifier used for the purpose of tax</text>
<text text-anchor="start" x="128" y="-365.1" font-family="Lato" font-size="8.00">administration.</text>
<polygon fill="#dddddd" stroke="transparent" points="8,-340.5 8,-360.5 94,-360.5 94,-340.5 8,-340.5"/>
<text text-anchor="start" x="10" y="-349.6" font-family="Lato" font-weight="bold" font-size="8.00">year_incorporated</text>
<polygon fill="#dddddd" stroke="transparent" points="94,-340.5 94,-360.5 126,-360.5 126,-340.5 94,-340.5"/>
<text text-anchor="start" x="96" y="-348.6" font-family="Lato" font-size="8.00">number</text>
<polygon fill="#dddddd" stroke="transparent" points="126,-340.5 126,-360.5 312,-360.5 312,-340.5 126,-340.5"/>
<text text-anchor="start" x="128" y="-353.1" font-family="Lato" text-decoration="line-through" font-size="8.00">NULL</text>
<text text-anchor="start" x="148" y="-353.1" font-family="Lato" font-size="8.00">; The year in which the organization</text>
<text text-anchor="start" x="128" y="-345.1" font-family="Lato" font-size="8.00">was legally formed.</text>
<polygon fill="#dddddd" stroke="transparent" points="8,-320.5 8,-340.5 94,-340.5 94,-320.5 8,-320.5"/>
<text text-anchor="start" x="10" y="-329.6" font-family="Lato" font-weight="bold" font-size="8.00">legal_status</text>
<polygon fill="#dddddd" stroke="transparent" points="94,-320.5 94,-340.5 126,-340.5 126,-320.5 94,-320.5"/>
<text text-anchor="start" x="96" y="-328.6" font-family="Lato" font-size="8.00">string</text>
<polygon fill="#dddddd" stroke="transparent" points="126,-320.5 126,-340.5 312,-340.5 312,-320.5 126,-320.5"/>
<text text-anchor="start" x="128" y="-333.1" font-family="Lato" text-decoration="line-through" font-size="8.00">NULL</text>
<text text-anchor="start" x="148" y="-333.1" font-family="Lato" font-size="8.00">; The legal conditions that an</text>
<text text-anchor="start" x="128" y="-325.1" font-family="Lato" font-size="8.00">organization is operating under.</text>
<polygon fill="#dddddd" stroke="transparent" points="8,-292.5 8,-320.5 94,-320.5 94,-292.5 8,-292.5"/>
<text text-anchor="start" x="10" y="-305.6" font-family="Lato" font-weight="bold" font-size="8.00">logo</text>
<polygon fill="#dddddd" stroke="transparent" points="94,-292.5 94,-320.5 126,-320.5 126,-292.5 94,-292.5"/>
<text text-anchor="start" x="96" y="-304.6" font-family="Lato" font-size="8.00">string</text>
<polygon fill="#dddddd" stroke="transparent" points="126,-292.5 126,-320.5 312,-320.5 312,-292.5 126,-292.5"/>
<text text-anchor="start" x="128" y="-313.1" font-family="Lato" text-decoration="line-through" font-size="8.00">NULL</text>
<text text-anchor="start" x="148" y="-313.1" font-family="Lato" font-size="8.00">; A URL to an image associated with the</text>
<text text-anchor="start" x="128" y="-305.1" font-family="Lato" font-size="8.00">organization which can be presented alongside its</text>
<text text-anchor="start" x="128" y="-297.1" font-family="Lato" font-size="8.00">name.</text>
<polygon fill="#dddddd" stroke="transparent" points="8,-240.5 8,-292.5 94,-292.5 94,-240.5 8,-240.5"/>
<text text-anchor="start" x="10" y="-265.6" font-family="Lato" font-weight="bold" font-size="8.00">uri</text>
<polygon fill="#dddddd" stroke="transparent" points="94,-240.5 94,-292.5 126,-292.5 126,-240.5 94,-240.5"/>
<text text-anchor="start" x="96" y="-264.6" font-family="Lato" font-size="8.00">string</text>
<polygon fill="#dddddd" stroke="transparent" points="126,-240.5 126,-292.5 312,-292.5 312,-240.5 126,-240.5"/>
<text text-anchor="start" x="128" y="-285.1" font-family="Lato" text-decoration="line-through" font-size="8.00">NULL</text>
<text text-anchor="start" x="148" y="-285.1" font-family="Lato" font-size="8.00">; A persistent identifier to uniquely</text>
<text text-anchor="start" x="128" y="-277.1" font-family="Lato" font-size="8.00">identify the organization such as those provided</text>
<text text-anchor="start" x="128" y="-269.1" font-family="Lato" font-size="8.00">by Open Corporates or some other relevant URI</text>
<text text-anchor="start" x="128" y="-261.1" font-family="Lato" font-size="8.00">provider. This is not for listing the website of</text>
<text text-anchor="start" x="128" y="-253.1" font-family="Lato" font-size="8.00">the organization: that can be done through the</text>
<text text-anchor="start" x="128" y="-245.1" font-family="Lato" font-size="8.00">website field of the Organization.</text>
<polygon fill="#dddddd" stroke="transparent" points="8,-220.5 8,-240.5 94,-240.5 94,-220.5 8,-220.5"/>
<text text-anchor="start" x="10" y="-229.6" font-family="Lato" font-weight="bold" font-size="8.00">parent_organization_id</text>
<polygon fill="#dddddd" stroke="transparent" points="94,-220.5 94,-240.5 126,-240.5 126,-220.5 94,-220.5"/>
<text text-anchor="start" x="96" y="-228.6" font-family="Lato" font-size="8.00">string</text>
<polygon fill="#dddddd" stroke="transparent" points="126,-220.5 126,-240.5 312,-240.5 312,-220.5 126,-220.5"/>
<text text-anchor="start" x="128" y="-233.1" font-family="Lato" text-decoration="line-through" font-size="8.00">NULL</text>
<text text-anchor="start" x="148" y="-233.1" font-family="Lato" font-size="8.00">; The identifier of the organization&#39;s</text>
<text text-anchor="start" x="128" y="-225.1" font-family="Lato" font-size="8.00">parent organization.</text>
</g>
<!-- service -->
<g id="service" class="node">
<title>service</title>
<style>@font-face{font-family:"Lato";font-style:normal;font-weight:400;src:local("Lato Regular"),local("Lato-Regular"),url(../_static/fonts/Lato-Regular.ttf) format("truetype")}</style><polygon fill="white" stroke="transparent" points="684,-911.5 356,-911.5 356,-357.5 684,-357.5 684,-911.5"/>
<polygon fill="black" stroke="transparent" points="364,-361.5 364,-907.5 676,-907.5 676,-361.5 364,-361.5"/>
<polygon fill="#77dd77" stroke="transparent" points="364,-877.5 364,-907.5 676,-907.5 676,-877.5 364,-877.5"/>
<text text-anchor="start" x="504.5" y="-898.5" font-family="Lato" font-weight="bold" font-size="10.00">service</text>
<text text-anchor="start" x="400.5" y="-890.1" font-family="Lato" font-size="8.00">The details of the services provided by organizations to a range of</text>
<text text-anchor="start" x="489.5" y="-882.1" font-family="Lato" font-size="8.00">different groups.</text>
<polygon fill="#dddddd" stroke="transparent" points="364,-855.5 364,-877.5 453,-877.5 453,-855.5 364,-855.5"/>
<text text-anchor="start" x="366" y="-865.6" font-family="Lato" font-weight="bold" font-size="8.00">id</text>
<polygon fill="#dddddd" stroke="transparent" points="453,-855.5 453,-877.5 490,-877.5 490,-855.5 453,-855.5"/>
<text text-anchor="start" x="455" y="-864.6" font-family="Lato" font-size="8.00">string</text>
<polygon fill="#dddddd" stroke="transparent" points="490,-855.5 490,-877.5 676,-877.5 676,-855.5 490,-855.5"/>
<text text-anchor="start" x="492" y="-869.1" font-family="Lato" font-size="8.00">UNIQ; The identifier for the service. Each service</text>
<text text-anchor="start" x="492" y="-860.1" font-family="Lato" font-size="8.00">must have a unique identifier.</text>
<polygon fill="#dddddd" stroke="transparent" points="364,-833.5 364,-855.5 453,-855.5 453,-833.5 364,-833.5"/>
<text text-anchor="start" x="366" y="-843.6" font-family="Lato" font-weight="bold" font-size="8.00">organization_id</text>
<polygon fill="#dddddd" stroke="transparent" points="453,-833.5 453,-855.5 490,-855.5 490,-833.5 453,-833.5"/>
<text text-anchor="start" x="455" y="-842.6" font-family="Lato" font-size="8.00">string</text>
<polygon fill="#dddddd" stroke="transparent" points="490,-833.5 490,-855.5 676,-855.5 676,-833.5 490,-833.5"/>
<text text-anchor="start" x="492" y="-847.1" font-family="Lato" font-size="8.00">The identifier of the organization that provides</text>
<text text-anchor="start" x="492" y="-838.1" font-family="Lato" font-size="8.00">this service.</text>
<polygon fill="#dddddd" stroke="transparent" points="364,-813.5 364,-833.5 453,-833.5 453,-813.5 364,-813.5"/>
<text text-anchor="start" x="366" y="-822.6" font-family="Lato" font-weight="bold" font-size="8.00">program_id</text>
<polygon fill="#dddddd" stroke="transparent" points="453,-813.5 453,-833.5 490,-833.5 490,-813.5 453,-813.5"/>
<text text-anchor="start" x="455" y="-821.6" font-family="Lato" font-size="8.00">string</text>
<polygon fill="#dddddd" stroke="transparent" points="490,-813.5 490,-833.5 676,-833.5 676,-813.5 490,-813.5"/>
<text text-anchor="start" x="492" y="-826.1" font-family="Lato" text-decoration="line-through" font-size="8.00">NULL</text>
<text text-anchor="start" x="512" y="-826.1" font-family="Lato" font-size="8.00">; The identifier of the program this</text>
<text text-anchor="start" x="492" y="-818.1" font-family="Lato" font-size="8.00">service is delivered under.</text>
<polygon fill="#dddddd" stroke="transparent" points="364,-800.5 364,-813.5 453,-813.5 453,-800.5 364,-800.5"/>
<text text-anchor="start" x="366" y="-806.1" font-family="Lato" font-weight="bold" font-size="8.00">name</text>
<polygon fill="#dddddd" stroke="transparent" points="453,-800.5 453,-813.5 490,-813.5 490,-800.5 453,-800.5"/>
<text text-anchor="start" x="455" y="-805.1" font-family="Lato" font-size="8.00">string</text>
<polygon fill="#dddddd" stroke="transparent" points="490,-800.5 490,-813.5 676,-813.5 676,-800.5 490,-800.5"/>
<text text-anchor="start" x="492" y="-805.1" font-family="Lato" font-size="8.00">The official or public name of the service.</text>
<polygon fill="#dddddd" stroke="transparent" points="364,-780.5 364,-800.5 453,-800.5 453,-780.5 364,-780.5"/>
<text text-anchor="start" x="366" y="-789.6" font-family="Lato" font-weight="bold" font-size="8.00">alternate_name</text>
<polygon fill="#dddddd" stroke="transparent" points="453,-780.5 453,-800.5 490,-800.5 490,-780.5 453,-780.5"/>
<text text-anchor="start" x="455" y="-788.6" font-family="Lato" font-size="8.00">string</text>
<polygon fill="#dddddd" stroke="transparent" points="490,-780.5 490,-800.5 676,-800.5 676,-780.5 490,-780.5"/>
<text text-anchor="start" x="492" y="-793.1" font-family="Lato" text-decoration="line-through" font-size="8.00">NULL</text>
<text text-anchor="start" x="512" y="-793.1" font-family="Lato" font-size="8.00">; An (optional) alternative name for</text>
<text text-anchor="start" x="492" y="-785.1" font-family="Lato" font-size="8.00">this service.</text>
<polygon fill="#dddddd" stroke="transparent" points="364,-760.5 364,-780.5 453,-780.5 453,-760.5 364,-760.5"/>
<text text-anchor="start" x="366" y="-769.6" font-family="Lato" font-weight="bold" font-size="8.00">description</text>
<polygon fill="#dddddd" stroke="transparent" points="453,-760.5 453,-780.5 490,-780.5 490,-760.5 453,-760.5"/>
<text text-anchor="start" x="455" y="-768.6" font-family="Lato" font-size="8.00">string</text>
<polygon fill="#dddddd" stroke="transparent" points="490,-760.5 490,-780.5 676,-780.5 676,-760.5 490,-760.5"/>
<text text-anchor="start" x="492" y="-773.1" font-family="Lato" text-decoration="line-through" font-size="8.00">NULL</text>
<text text-anchor="start" x="512" y="-773.1" font-family="Lato" font-size="8.00">; A free text description of the</text>
<text text-anchor="start" x="492" y="-765.1" font-family="Lato" font-size="8.00">service.</text>
<polygon fill="#dddddd" stroke="transparent" points="364,-747.5 364,-760.5 453,-760.5 453,-747.5 364,-747.5"/>
<text text-anchor="start" x="366" y="-753.1" font-family="Lato" font-weight="bold" font-size="8.00">url</text>
<polygon fill="#dddddd" stroke="transparent" points="453,-747.5 453,-760.5 490,-760.5 490,-747.5 453,-747.5"/>
<text text-anchor="start" x="455" y="-752.1" font-family="Lato" font-size="8.00">string</text>
<polygon fill="#dddddd" stroke="transparent" points="490,-747.5 490,-760.5 676,-760.5 676,-747.5 490,-747.5"/>
<text text-anchor="start" x="492" y="-753.1" font-family="Lato" text-decoration="line-through" font-size="8.00">NULL</text>
<text text-anchor="start" x="512" y="-753.1" font-family="Lato" font-size="8.00">; URL of the service</text>
<polygon fill="#dddddd" stroke="transparent" points="364,-727.5 364,-747.5 453,-747.5 453,-727.5 364,-727.5"/>
<text text-anchor="start" x="366" y="-736.6" font-family="Lato" font-weight="bold" font-size="8.00">email</text>
<polygon fill="#dddddd" stroke="transparent" points="453,-727.5 453,-747.5 490,-747.5 490,-727.5 453,-727.5"/>
<text text-anchor="start" x="455" y="-735.6" font-family="Lato" font-size="8.00">string</text>
<polygon fill="#dddddd" stroke="transparent" points="490,-727.5 490,-747.5 676,-747.5 676,-727.5 490,-727.5"/>
<text text-anchor="start" x="492" y="-740.1" font-family="Lato" text-decoration="line-through" font-size="8.00">NULL</text>
<text text-anchor="start" x="512" y="-740.1" font-family="Lato" font-size="8.00">; An email address which can be used to</text>
<text text-anchor="start" x="492" y="-732.1" font-family="Lato" font-size="8.00">contact the service provider.</text>
<polygon fill="#dddddd" stroke="transparent" points="364,-705.5 364,-727.5 453,-727.5 453,-705.5 364,-705.5"/>
<text text-anchor="start" x="366" y="-715.6" font-family="Lato" font-weight="bold" font-size="8.00">status</text>
<polygon fill="#dddddd" stroke="transparent" points="453,-705.5 453,-727.5 490,-727.5 490,-705.5 453,-705.5"/>
<text text-anchor="start" x="455" y="-714.6" font-family="Lato" font-size="8.00">string</text>
<polygon fill="#dddddd" stroke="transparent" points="490,-705.5 490,-727.5 676,-727.5 676,-705.5 490,-705.5"/>
<text text-anchor="start" x="492" y="-719.1" font-family="Lato" font-size="8.00">The current status of the service which can be</text>
<text text-anchor="start" x="492" y="-710.1" font-family="Lato" font-size="8.00">active, inactive, defunct, or temporarily closed.</text>
<polygon fill="#dddddd" stroke="transparent" points="364,-677.5 364,-705.5 453,-705.5 453,-677.5 364,-677.5"/>
<text text-anchor="start" x="366" y="-690.6" font-family="Lato" font-weight="bold" font-size="8.00">interpretation_services</text>
<polygon fill="#dddddd" stroke="transparent" points="453,-677.5 453,-705.5 490,-705.5 490,-677.5 453,-677.5"/>
<text text-anchor="start" x="455" y="-689.6" font-family="Lato" font-size="8.00">string</text>
<polygon fill="#dddddd" stroke="transparent" points="490,-677.5 490,-705.5 676,-705.5 676,-677.5 490,-677.5"/>
<text text-anchor="start" x="492" y="-698.1" font-family="Lato" text-decoration="line-through" font-size="8.00">NULL</text>
<text text-anchor="start" x="512" y="-698.1" font-family="Lato" font-size="8.00">; A free text description of any</text>
<text text-anchor="start" x="492" y="-690.1" font-family="Lato" font-size="8.00">interpretation services available for accessing</text>
<text text-anchor="start" x="492" y="-682.1" font-family="Lato" font-size="8.00">this service.</text>
<polygon fill="#dddddd" stroke="transparent" points="364,-657.5 364,-677.5 453,-677.5 453,-657.5 364,-657.5"/>
<text text-anchor="start" x="366" y="-666.6" font-family="Lato" font-weight="bold" font-size="8.00">application_process</text>
<polygon fill="#dddddd" stroke="transparent" points="453,-657.5 453,-677.5 490,-677.5 490,-657.5 453,-657.5"/>
<text text-anchor="start" x="455" y="-665.6" font-family="Lato" font-size="8.00">string</text>
<polygon fill="#dddddd" stroke="transparent" points="490,-657.5 490,-677.5 676,-677.5 676,-657.5 490,-657.5"/>
<text text-anchor="start" x="492" y="-670.1" font-family="Lato" text-decoration="line-through" font-size="8.00">NULL</text>
<text text-anchor="start" x="512" y="-670.1" font-family="Lato" font-size="8.00">; A free text description of the steps</text>
<text text-anchor="start" x="492" y="-662.1" font-family="Lato" font-size="8.00">needed to access this service.</text>
<polygon fill="#dddddd" stroke="transparent" points="364,-637.5 364,-657.5 453,-657.5 453,-637.5 364,-637.5"/>
<text text-anchor="start" x="366" y="-646.6" font-family="Lato" font-weight="bold" font-size="8.00">fees_description</text>
<polygon fill="#dddddd" stroke="transparent" points="453,-637.5 453,-657.5 490,-657.5 490,-637.5 453,-637.5"/>
<text text-anchor="start" x="455" y="-645.6" font-family="Lato" font-size="8.00">string</text>
<polygon fill="#dddddd" stroke="transparent" points="490,-637.5 490,-657.5 676,-657.5 676,-637.5 490,-637.5"/>
<text text-anchor="start" x="492" y="-650.1" font-family="Lato" text-decoration="line-through" font-size="8.00">NULL</text>
<text text-anchor="start" x="512" y="-650.1" font-family="Lato" font-size="8.00">; A free text description of any</text>
<text text-anchor="start" x="492" y="-642.1" font-family="Lato" font-size="8.00">charges for service users to access this service.</text>
<polygon fill="#dddddd" stroke="transparent" points="364,-617.5 364,-637.5 453,-637.5 453,-617.5 364,-617.5"/>
<text text-anchor="start" x="366" y="-626.6" font-family="Lato" font-weight="bold" font-size="8.00">wait_time</text>
<polygon fill="#dddddd" stroke="transparent" points="453,-617.5 453,-637.5 490,-637.5 490,-617.5 453,-617.5"/>
<text text-anchor="start" x="455" y="-625.6" font-family="Lato" font-size="8.00">string</text>
<polygon fill="#dddddd" stroke="transparent" points="490,-617.5 490,-637.5 676,-637.5 676,-617.5 490,-617.5"/>
<text text-anchor="start" x="492" y="-630.1" font-family="Lato" text-decoration="line-through" font-size="8.00">NULL</text>
<text text-anchor="start" x="512" y="-630.1" font-family="Lato" font-size="8.00">; DEPRECATED: The time a client may</text>
<text text-anchor="start" x="492" y="-622.1" font-family="Lato" font-size="8.00">expect to wait before receiving a service.</text>
<polygon fill="#dddddd" stroke="transparent" points="364,-597.5 364,-617.5 453,-617.5 453,-597.5 364,-597.5"/>
<text text-anchor="start" x="366" y="-606.6" font-family="Lato" font-weight="bold" font-size="8.00">fees</text>
<polygon fill="#dddddd" stroke="transparent" points="453,-597.5 453,-617.5 490,-617.5 490,-597.5 453,-597.5"/>
<text text-anchor="start" x="455" y="-605.6" font-family="Lato" font-size="8.00">string</text>
<polygon fill="#dddddd" stroke="transparent" points="490,-597.5 490,-617.5 676,-617.5 676,-597.5 490,-597.5"/>
<text text-anchor="start" x="492" y="-610.1" font-family="Lato" text-decoration="line-through" font-size="8.00">NULL</text>
<text text-anchor="start" x="512" y="-610.1" font-family="Lato" font-size="8.00">; DEPRECATED: Details of any charges</text>
<text text-anchor="start" x="492" y="-602.1" font-family="Lato" font-size="8.00">for service users to access this service.</text>
<polygon fill="#dddddd" stroke="transparent" points="364,-553.5 364,-597.5 453,-597.5 453,-553.5 364,-553.5"/>
<text text-anchor="start" x="366" y="-574.6" font-family="Lato" font-weight="bold" font-size="8.00">accreditations</text>
<polygon fill="#dddddd" stroke="transparent" points="453,-553.5 453,-597.5 490,-597.5 490,-553.5 453,-553.5"/>
<text text-anchor="start" x="455" y="-573.6" font-family="Lato" font-size="8.00">string</text>
<polygon fill="#dddddd" stroke="transparent" points="490,-553.5 490,-597.5 676,-597.5 676,-553.5 490,-553.5"/>
<text text-anchor="start" x="492" y="-590.1" font-family="Lato" text-decoration="line-through" font-size="8.00">NULL</text>
<text text-anchor="start" x="512" y="-590.1" font-family="Lato" font-size="8.00">; A free text description of any</text>
<text text-anchor="start" x="492" y="-582.1" font-family="Lato" font-size="8.00">accreditations. Accreditation is the formal</text>
<text text-anchor="start" x="492" y="-574.1" font-family="Lato" font-size="8.00">evaluation of an organization or program against</text>
<text text-anchor="start" x="492" y="-566.1" font-family="Lato" font-size="8.00">best practice standards set by an accrediting</text>
<text text-anchor="start" x="492" y="-558.1" font-family="Lato" font-size="8.00">organization.</text>
<polygon fill="#dddddd" stroke="transparent" points="364,-533.5 364,-553.5 453,-553.5 453,-533.5 364,-533.5"/>
<text text-anchor="start" x="366" y="-542.6" font-family="Lato" font-weight="bold" font-size="8.00">eligibility_description</text>
<polygon fill="#dddddd" stroke="transparent" points="453,-533.5 453,-553.5 490,-553.5 490,-533.5 453,-533.5"/>
<text text-anchor="start" x="455" y="-541.6" font-family="Lato" font-size="8.00">string</text>
<polygon fill="#dddddd" stroke="transparent" points="490,-533.5 490,-553.5 676,-553.5 676,-533.5 490,-533.5"/>
<text text-anchor="start" x="492" y="-546.1" font-family="Lato" text-decoration="line-through" font-size="8.00">NULL</text>
<text text-anchor="start" x="512" y="-546.1" font-family="Lato" font-size="8.00">; A free text description of the type</text>
<text text-anchor="start" x="492" y="-538.1" font-family="Lato" font-size="8.00">of person for whom this service is intended.</text>
<polygon fill="#dddddd" stroke="transparent" points="364,-513.5 364,-533.5 453,-533.5 453,-513.5 364,-513.5"/>
<text text-anchor="start" x="366" y="-522.6" font-family="Lato" font-weight="bold" font-size="8.00">minimum_age</text>
<polygon fill="#dddddd" stroke="transparent" points="453,-513.5 453,-533.5 490,-533.5 490,-513.5 453,-513.5"/>
<text text-anchor="start" x="455" y="-521.6" font-family="Lato" font-size="8.00">number</text>
<polygon fill="#dddddd" stroke="transparent" points="490,-513.5 490,-533.5 676,-533.5 676,-513.5 490,-513.5"/>
<text text-anchor="start" x="492" y="-526.1" font-family="Lato" text-decoration="line-through" font-size="8.00">NULL</text>
<text text-anchor="start" x="512" y="-526.1" font-family="Lato" font-size="8.00">; The minimum age of a person required</text>
<text text-anchor="start" x="492" y="-518.1" font-family="Lato" font-size="8.00">to meet this eligibility requirement.</text>
<polygon fill="#dddddd" stroke="transparent" points="364,-493.5 364,-513.5 453,-513.5 453,-493.5 364,-493.5"/>
<text text-anchor="start" x="366" y="-502.6" font-family="Lato" font-weight="bold" font-size="8.00">maximum_age</text>
<polygon fill="#dddddd" stroke="transparent" points="453,-493.5 453,-513.5 490,-513.5 490,-493.5 453,-493.5"/>
<text text-anchor="start" x="455" y="-501.6" font-family="Lato" font-size="8.00">number</text>
<polygon fill="#dddddd" stroke="transparent" points="490,-493.5 490,-513.5 676,-513.5 676,-493.5 490,-493.5"/>
<text text-anchor="start" x="492" y="-506.1" font-family="Lato" text-decoration="line-through" font-size="8.00">NULL</text>
<text text-anchor="start" x="512" y="-506.1" font-family="Lato" font-size="8.00">; The maximum age of a person required</text>
<text text-anchor="start" x="492" y="-498.1" font-family="Lato" font-size="8.00">to meet this eligibility requirement.</text>
<polygon fill="#dddddd" stroke="transparent" points="364,-473.5 364,-493.5 453,-493.5 453,-473.5 364,-473.5"/>
<text text-anchor="start" x="366" y="-482.6" font-family="Lato" font-weight="bold" font-size="8.00">assured_date</text>
<polygon fill="#dddddd" stroke="transparent" points="453,-473.5 453,-493.5 490,-493.5 490,-473.5 453,-473.5"/>
<text text-anchor="start" x="455" y="-481.6" font-family="Lato" font-size="8.00">date</text>
<polygon fill="#dddddd" stroke="transparent" points="490,-473.5 490,-493.5 676,-493.5 676,-473.5 490,-473.5"/>
<text text-anchor="start" x="492" y="-486.1" font-family="Lato" text-decoration="line-through" font-size="8.00">NULL</text>
<text text-anchor="start" x="512" y="-486.1" font-family="Lato" font-size="8.00">; The date that the information about</text>
<text text-anchor="start" x="492" y="-478.1" font-family="Lato" font-size="8.00">the service was last checked.</text>
<polygon fill="#dddddd" stroke="transparent" points="364,-445.5 364,-473.5 453,-473.5 453,-445.5 364,-445.5"/>
<text text-anchor="start" x="366" y="-458.6" font-family="Lato" font-weight="bold" font-size="8.00">assurer_email</text>
<polygon fill="#dddddd" stroke="transparent" points="453,-445.5 453,-473.5 490,-473.5 490,-445.5 453,-445.5"/>
<text text-anchor="start" x="455" y="-457.6" font-family="Lato" font-size="8.00">string</text>
<polygon fill="#dddddd" stroke="transparent" points="490,-445.5 490,-473.5 676,-473.5 676,-445.5 490,-445.5"/>
<text text-anchor="start" x="492" y="-466.1" font-family="Lato" text-decoration="line-through" font-size="8.00">NULL</text>
<text text-anchor="start" x="512" y="-466.1" font-family="Lato" font-size="8.00">; The contact e&#45;mail address for the</text>
<text text-anchor="start" x="492" y="-458.1" font-family="Lato" font-size="8.00">person or organization which last assured the</text>
<text text-anchor="start" x="492" y="-450.1" font-family="Lato" font-size="8.00">service.</text>
<polygon fill="#dddddd" stroke="transparent" points="364,-409.5 364,-445.5 453,-445.5 453,-409.5 364,-409.5"/>
<text text-anchor="start" x="366" y="-426.6" font-family="Lato" font-weight="bold" font-size="8.00">licenses</text>
<polygon fill="#dddddd" stroke="transparent" points="453,-409.5 453,-445.5 490,-445.5 490,-409.5 453,-409.5"/>
<text text-anchor="start" x="455" y="-425.6" font-family="Lato" font-size="8.00">string</text>
<polygon fill="#dddddd" stroke="transparent" points="490,-409.5 490,-445.5 676,-445.5 676,-409.5 490,-409.5"/>
<text text-anchor="start" x="492" y="-438.1" font-family="Lato" text-decoration="line-through" font-size="8.00">NULL</text>
<text text-anchor="start" x="512" y="-438.1" font-family="Lato" font-size="8.00">; DEPRECATED: An organization may have</text>
<text text-anchor="start" x="492" y="-430.1" font-family="Lato" font-size="8.00">a license issued by a government entity to operate</text>
<text text-anchor="start" x="492" y="-422.1" font-family="Lato" font-size="8.00">legally. A list of any such licenses can be</text>
<text text-anchor="start" x="492" y="-414.1" font-family="Lato" font-size="8.00">provided here.</text>
<polygon fill="#dddddd" stroke="transparent" points="364,-389.5 364,-409.5 453,-409.5 453,-389.5 364,-389.5"/>
<text text-anchor="start" x="366" y="-398.6" font-family="Lato" font-weight="bold" font-size="8.00">alert</text>
<polygon fill="#dddddd" stroke="transparent" points="453,-389.5 453,-409.5 490,-409.5 490,-389.5 453,-389.5"/>
<text text-anchor="start" x="455" y="-397.6" font-family="Lato" font-size="8.00">string</text>
<polygon fill="#dddddd" stroke="transparent" points="490,-389.5 490,-409.5 676,-409.5 676,-389.5 490,-389.5"/>
<text text-anchor="start" x="492" y="-402.1" font-family="Lato" text-decoration="line-through" font-size="8.00">NULL</text>
<text text-anchor="start" x="512" y="-402.1" font-family="Lato" font-size="8.00">; A description of any short term</text>
<text text-anchor="start" x="492" y="-394.1" font-family="Lato" font-size="8.00">alerts concerning the service.</text>
<polygon fill="#dddddd" stroke="transparent" points="364,-361.5 364,-389.5 453,-389.5 453,-361.5 364,-361.5"/>
<text text-anchor="start" x="366" y="-374.6" font-family="Lato" font-weight="bold" font-size="8.00">last_modified</text>
<polygon fill="#dddddd" stroke="transparent" points="453,-361.5 453,-389.5 490,-389.5 490,-361.5 453,-361.5"/>
<text text-anchor="start" x="455" y="-373.6" font-family="Lato" font-size="8.00">datetime</text>
<polygon fill="#dddddd" stroke="transparent" points="490,-361.5 490,-389.5 676,-389.5 676,-361.5 490,-361.5"/>
<text text-anchor="start" x="492" y="-382.1" font-family="Lato" text-decoration="line-through" font-size="8.00">NULL</text>
<text text-anchor="start" x="512" y="-382.1" font-family="Lato" font-size="8.00">; The datetime when the service, or any</text>
<text text-anchor="start" x="492" y="-374.1" font-family="Lato" font-size="8.00">related information about the service, has</text>
<text text-anchor="start" x="492" y="-366.1" font-family="Lato" font-size="8.00">changed. Should have millisecond accuracy.</text>
</g>
<!-- service&#45;&gt;organization -->
<g id="edge1" class="edge">
<title>service:i2&#45;&gt;organization:f1</title>
<style>@font-face{font-family:"Lato";font-style:normal;font-weight:400;src:local("Lato Regular"),local("Lato-Regular"),url(../_static/fonts/Lato-Regular.ttf) format("truetype")}</style><path fill="none" stroke="black" d="M363,-844.5C218.61,-844.5 457.39,-523.5 313,-523.5"/>
</g>
<!-- location -->
<g id="location" class="node">
<title>location</title>
<style>@font-face{font-family:"Lato";font-style:normal;font-weight:400;src:local("Lato Regular"),local("Lato-Regular"),url(../_static/fonts/Lato-Regular.ttf) format("truetype")}</style><polygon fill="white" stroke="transparent" points="683,-339 357,-339 357,0 683,0 683,-339"/>
<polygon fill="black" stroke="transparent" points="365,-4 365,-335 675,-335 675,-4 365,-4"/>
<polygon fill="#77dd77" stroke="transparent" points="365,-304.5 365,-334.5 675,-334.5 675,-304.5 365,-304.5"/>
<text text-anchor="start" x="501.5" y="-325.5" font-family="Lato" font-weight="bold" font-size="10.00">location</text>
<text text-anchor="start" x="397" y="-317.1" font-family="Lato" font-size="8.00">The locations where organizations operate. Locations may be virtual,</text>
<text text-anchor="start" x="435.5" y="-309.1" font-family="Lato" font-size="8.00">and one organization may have many locations.</text>
<polygon fill="#dddddd" stroke="transparent" points="365,-282.5 365,-304.5 457,-304.5 457,-282.5 365,-282.5"/>
<text text-anchor="start" x="367" y="-292.6" font-family="Lato" font-weight="bold" font-size="8.00">id</text>
<polygon fill="#dddddd" stroke="transparent" points="457,-282.5 457,-304.5 489,-304.5 489,-282.5 457,-282.5"/>
<text text-anchor="start" x="459" y="-291.6" font-family="Lato" font-size="8.00">string</text>
<polygon fill="#dddddd" stroke="transparent" points="489,-282.5 489,-304.5 675,-304.5 675,-282.5 489,-282.5"/>
<text text-anchor="start" x="491" y="-296.1" font-family="Lato" font-size="8.00">UNIQ; The identifier of the location. Each</text>
<text text-anchor="start" x="491" y="-287.1" font-family="Lato" font-size="8.00">location must have a unique identifier.</text>
<polygon fill="#dddddd" stroke="transparent" points="365,-260.5 365,-282.5 457,-282.5 457,-260.5 365,-260.5"/>
<text text-anchor="start" x="367" y="-270.6" font-family="Lato" font-weight="bold" font-size="8.00">location_type</text>
<polygon fill="#dddddd" stroke="transparent" points="457,-260.5 457,-282.5 489,-282.5 489,-260.5 457,-260.5"/>
<text text-anchor="start" x="459" y="-269.6" font-family="Lato" font-size="8.00">string</text>
<polygon fill="#dddddd" stroke="transparent" points="489,-260.5 489,-282.5 675,-282.5 675,-260.5 489,-260.5"/>
<text text-anchor="start" x="491" y="-274.1" font-family="Lato" font-size="8.00">The type of location, which may be either</text>
<text text-anchor="start" x="491" y="-265.1" font-family="Lato" font-size="8.00">physical, postal, or virtual.</text>
<polygon fill="#dddddd" stroke="transparent" points="365,-232.5 365,-260.5 457,-260.5 457,-232.5 365,-232.5"/>
<text text-anchor="start" x="367" y="-245.6" font-family="Lato" font-weight="bold" font-size="8.00">url</text>
<polygon fill="#dddddd" stroke="transparent" points="457,-232.5 457,-260.5 489,-260.5 489,-232.5 457,-232.5"/>
<text text-anchor="start" x="459" y="-244.6" font-family="Lato" font-size="8.00">string</text>
<polygon fill="#dddddd" stroke="transparent" points="489,-232.5 489,-260.5 675,-260.5 675,-232.5 489,-232.5"/>
<text text-anchor="start" x="491" y="-253.1" font-family="Lato" text-decoration="line-through" font-size="8.00">NULL</text>
<text text-anchor="start" x="511" y="-253.1" font-family="Lato" font-size="8.00">; If location_type is virtual, then</text>
<text text-anchor="start" x="491" y="-245.1" font-family="Lato" font-size="8.00">this field represents the URL of a virtual</text>
<text text-anchor="start" x="491" y="-237.1" font-family="Lato" font-size="8.00">location.</text>
<polygon fill="#dddddd" stroke="transparent" points="365,-172.5 365,-232.5 457,-232.5 457,-172.5 365,-172.5"/>
<text text-anchor="start" x="367" y="-201.6" font-family="Lato" font-weight="bold" font-size="8.00">organization_id</text>
<polygon fill="#dddddd" stroke="transparent" points="457,-172.5 457,-232.5 489,-232.5 489,-172.5 457,-172.5"/>
<text text-anchor="start" x="459" y="-200.6" font-family="Lato" font-size="8.00">string</text>
<polygon fill="#dddddd" stroke="transparent" points="489,-172.5 489,-232.5 675,-232.5 675,-172.5 489,-172.5"/>
<text text-anchor="start" x="491" y="-225.1" font-family="Lato" text-decoration="line-through" font-size="8.00">NULL</text>
<text text-anchor="start" x="511" y="-225.1" font-family="Lato" font-size="8.00">; The organization identifier for a</text>
<text text-anchor="start" x="491" y="-217.1" font-family="Lato" font-size="8.00">location. This is the organization that is</text>
<text text-anchor="start" x="491" y="-209.1" font-family="Lato" font-size="8.00">responsible for maintaining information about this</text>
<text text-anchor="start" x="491" y="-201.1" font-family="Lato" font-size="8.00">location. The identifier of the organization</text>
<text text-anchor="start" x="491" y="-193.1" font-family="Lato" font-size="8.00">should be given here. Details of the services the</text>
<text text-anchor="start" x="491" y="-185.1" font-family="Lato" font-size="8.00">organization delivers at this location should be</text>
<text text-anchor="start" x="491" y="-177.1" font-family="Lato" font-size="8.00">provided in the services_at_location table.</text>
<polygon fill="#dddddd" stroke="transparent" points="365,-159.5 365,-172.5 457,-172.5 457,-159.5 365,-159.5"/>
<text text-anchor="start" x="367" y="-165.1" font-family="Lato" font-weight="bold" font-size="8.00">name</text>
<polygon fill="#dddddd" stroke="transparent" points="457,-159.5 457,-172.5 489,-172.5 489,-159.5 457,-159.5"/>
<text text-anchor="start" x="459" y="-164.1" font-family="Lato" font-size="8.00">string</text>
<polygon fill="#dddddd" stroke="transparent" points="489,-159.5 489,-172.5 675,-172.5 675,-159.5 489,-159.5"/>
<text text-anchor="start" x="491" y="-165.1" font-family="Lato" text-decoration="line-through" font-size="8.00">NULL</text>
<text text-anchor="start" x="511" y="-165.1" font-family="Lato" font-size="8.00">; The name of the location.</text>
<polygon fill="#dddddd" stroke="transparent" points="365,-139.5 365,-159.5 457,-159.5 457,-139.5 365,-139.5"/>
<text text-anchor="start" x="367" y="-148.6" font-family="Lato" font-weight="bold" font-size="8.00">alternate_name</text>
<polygon fill="#dddddd" stroke="transparent" points="457,-139.5 457,-159.5 489,-159.5 489,-139.5 457,-139.5"/>
<text text-anchor="start" x="459" y="-147.6" font-family="Lato" font-size="8.00">string</text>
<polygon fill="#dddddd" stroke="transparent" points="489,-139.5 489,-159.5 675,-159.5 675,-139.5 489,-139.5"/>
<text text-anchor="start" x="491" y="-152.1" font-family="Lato" text-decoration="line-through" font-size="8.00">NULL</text>
<text text-anchor="start" x="511" y="-152.1" font-family="Lato" font-size="8.00">; An (optional) alternative name of the</text>
<text text-anchor="start" x="491" y="-144.1" font-family="Lato" font-size="8.00">location.</text>
<polygon fill="#dddddd" stroke="transparent" points="365,-119.5 365,-139.5 457,-139.5 457,-119.5 365,-119.5"/>
<text text-anchor="start" x="367" y="-128.6" font-family="Lato" font-weight="bold" font-size="8.00">description</text>
<polygon fill="#dddddd" stroke="transparent" points="457,-119.5 457,-139.5 489,-139.5 489,-119.5 457,-119.5"/>
<text text-anchor="start" x="459" y="-127.6" font-family="Lato" font-size="8.00">string</text>
<polygon fill="#dddddd" stroke="transparent" points="489,-119.5 489,-139.5 675,-139.5 675,-119.5 489,-119.5"/>
<text text-anchor="start" x="491" y="-132.1" font-family="Lato" text-decoration="line-through" font-size="8.00">NULL</text>
<text text-anchor="start" x="511" y="-132.1" font-family="Lato" font-size="8.00">; A free text description of the</text>
<text text-anchor="start" x="491" y="-124.1" font-family="Lato" font-size="8.00">location.</text>
<polygon fill="#dddddd" stroke="transparent" points="365,-91.5 365,-119.5 457,-119.5 457,-91.5 365,-91.5"/>
<text text-anchor="start" x="367" y="-104.6" font-family="Lato" font-weight="bold" font-size="8.00">transportation</text>
<polygon fill="#dddddd" stroke="transparent" points="457,-91.5 457,-119.5 489,-119.5 489,-91.5 457,-91.5"/>
<text text-anchor="start" x="459" y="-103.6" font-family="Lato" font-size="8.00">string</text>
<polygon fill="#dddddd" stroke="transparent" points="489,-91.5 489,-119.5 675,-119.5 675,-91.5 489,-91.5"/>
<text text-anchor="start" x="491" y="-112.1" font-family="Lato" text-decoration="line-through" font-size="8.00">NULL</text>
<text text-anchor="start" x="511" y="-112.1" font-family="Lato" font-size="8.00">; A free text description of the access</text>
<text text-anchor="start" x="491" y="-104.1" font-family="Lato" font-size="8.00">to public or private transportation to and from</text>
<text text-anchor="start" x="491" y="-96.1" font-family="Lato" font-size="8.00">the location.</text>
<polygon fill="#dddddd" stroke="transparent" points="365,-71.5 365,-91.5 457,-91.5 457,-71.5 365,-71.5"/>
<text text-anchor="start" x="367" y="-80.6" font-family="Lato" font-weight="bold" font-size="8.00">latitude</text>
<polygon fill="#dddddd" stroke="transparent" points="457,-71.5 457,-91.5 489,-91.5 489,-71.5 457,-71.5"/>
<text text-anchor="start" x="459" y="-79.6" font-family="Lato" font-size="8.00">number</text>
<polygon fill="#dddddd" stroke="transparent" points="489,-71.5 489,-91.5 675,-91.5 675,-71.5 489,-71.5"/>
<text text-anchor="start" x="491" y="-84.1" font-family="Lato" text-decoration="line-through" font-size="8.00">NULL</text>
<text text-anchor="start" x="511" y="-84.1" font-family="Lato" font-size="8.00">; The latitude of the location</text>
<text text-anchor="start" x="491" y="-76.1" font-family="Lato" font-size="8.00">expressed in decimal degrees in WGS84 datum.</text>
<polygon fill="#dddddd" stroke="transparent" points="365,-51.5 365,-71.5 457,-71.5 457,-51.5 365,-51.5"/>
<text text-anchor="start" x="367" y="-60.6" font-family="Lato" font-weight="bold" font-size="8.00">longitude</text>
<polygon fill="#dddddd" stroke="transparent" points="457,-51.5 457,-71.5 489,-71.5 489,-51.5 457,-51.5"/>
<text text-anchor="start" x="459" y="-59.6" font-family="Lato" font-size="8.00">number</text>
<polygon fill="#dddddd" stroke="transparent" points="489,-51.5 489,-71.5 675,-71.5 675,-51.5 489,-51.5"/>
<text text-anchor="start" x="491" y="-64.1" font-family="Lato" text-decoration="line-through" font-size="8.00">NULL</text>
<text text-anchor="start" x="511" y="-64.1" font-family="Lato" font-size="8.00">; The longitude of the location</text>
<text text-anchor="start" x="491" y="-56.1" font-family="Lato" font-size="8.00">expressed in decimal degrees in WGS84 datum.</text>
<polygon fill="#dddddd" stroke="transparent" points="365,-23.5 365,-51.5 457,-51.5 457,-23.5 365,-23.5"/>
<text text-anchor="start" x="367" y="-36.6" font-family="Lato" font-weight="bold" font-size="8.00">external_identifier</text>
<polygon fill="#dddddd" stroke="transparent" points="457,-23.5 457,-51.5 489,-51.5 489,-23.5 457,-23.5"/>
<text text-anchor="start" x="459" y="-35.6" font-family="Lato" font-size="8.00">string</text>
<polygon fill="#dddddd" stroke="transparent" points="489,-23.5 489,-51.5 675,-51.5 675,-23.5 489,-23.5"/>
<text text-anchor="start" x="491" y="-44.1" font-family="Lato" text-decoration="line-through" font-size="8.00">NULL</text>
<text text-anchor="start" x="511" y="-44.1" font-family="Lato" font-size="8.00">; A third party identifier for the</text>
<text text-anchor="start" x="491" y="-36.1" font-family="Lato" font-size="8.00">location, which can be drawn from other services</text>
<text text-anchor="start" x="491" y="-28.1" font-family="Lato" font-size="8.00">e.g. UK UPRN.</text>
<polygon fill="#dddddd" stroke="transparent" points="365,-3.5 365,-23.5 457,-23.5 457,-3.5 365,-3.5"/>
<text text-anchor="start" x="367" y="-12.6" font-family="Lato" font-weight="bold" font-size="8.00">external_identifier_type</text>
<polygon fill="#dddddd" stroke="transparent" points="457,-3.5 457,-23.5 489,-23.5 489,-3.5 457,-3.5"/>
<text text-anchor="start" x="459" y="-11.6" font-family="Lato" font-size="8.00">string</text>
<polygon fill="#dddddd" stroke="transparent" points="489,-3.5 489,-23.5 675,-23.5 675,-3.5 489,-3.5"/>
<text text-anchor="start" x="491" y="-16.1" font-family="Lato" text-decoration="line-through" font-size="8.00">NULL</text>
<text text-anchor="start" x="511" y="-16.1" font-family="Lato" font-size="8.00">; The scheme used for the location&#39;s</text>
<text text-anchor="start" x="491" y="-8.1" font-family="Lato" font-size="8.00">external_identifier e.g. UK UPRN.</text>
</g>
<!-- location&#45;&gt;organization -->
<g id="edge2" class="edge">
<title>location:i4&#45;&gt;organization:f1</title>
<style>@font-face{font-family:"Lato";font-style:normal;font-weight:400;src:local("Lato Regular"),local("Lato-Regular"),url(../_static/fonts/Lato-Regular.ttf) format("truetype")}</style><path fill="none" stroke="black" d="M364,-202.5C291.77,-202.5 385.23,-523.5 313,-523.5"/>
</g>
</g>
</svg>

