<?xml version="1.0" encoding="UTF-8" standalone="no"?>
<!DOCTYPE svg PUBLIC "-//W3C//DTD SVG 1.1//EN"
 "http://www.w3.org/Graphics/SVG/1.1/DTD/svg11.dtd">
<!-- Generated by graphviz version 2.43.0 (0)
 -->
<!-- Title: Changeme Pages: 1 -->
<svg width="692pt" height="880pt"
 viewBox="0.00 0.00 692.00 879.50" xmlns="http://www.w3.org/2000/svg" xmlns:xlink="http://www.w3.org/1999/xlink">
<g id="graph0" class="graph" transform="scale(1 1) rotate(0) translate(4 875.5)">
<title>Changeme</title>
<style>@font-face{font-family:"Lato";font-style:normal;font-weight:400;src:local("Lato Regular"),local("Lato-Regular"),url(../_static/fonts/Lato-Regular.ttf) format("truetype")}</style><polygon fill="white" stroke="transparent" points="-4,4 -4,-875.5 688,-875.5 688,4 -4,4"/>
<!-- organization -->
<g id="organization" class="node">
<title>organization</title>
<style>@font-face{font-family:"Lato";font-style:normal;font-weight:400;src:local("Lato Regular"),local("Lato-Regular"),url(../_static/fonts/Lato-Regular.ttf) format("truetype")}</style><polygon fill="white" stroke="transparent" points="320,-556.5 0,-556.5 0,-196.5 320,-196.5 320,-556.5"/>
<polygon fill="black" stroke="transparent" points="8,-200.5 8,-552.5 312,-552.5 312,-200.5 8,-200.5"/>
<polygon fill="#77dd77" stroke="transparent" points="8,-514.5 8,-552.5 312,-552.5 312,-514.5 8,-514.5"/>
<text text-anchor="start" x="131" y="-543.5" font-family="Lato" font-weight="bold" font-size="10.00">organization</text>
<text text-anchor="start" x="36" y="-535.1" font-family="Lato" font-size="8.00">The details about each organization delivering services. Each service</text>
<text text-anchor="start" x="35.5" y="-527.1" font-family="Lato" font-size="8.00">should be linked to the organization responsible for its delivery. One</text>
<text text-anchor="start" x="88" y="-519.1" font-family="Lato" font-size="8.00">organization may deliver many services.</text>
<polygon fill="#dddddd" stroke="transparent" points="8,-492.5 8,-514.5 94,-514.5 94,-492.5 8,-492.5"/>
<text text-anchor="start" x="10" y="-502.6" font-family="Lato" font-weight="bold" font-size="8.00">id</text>
<polygon fill="#dddddd" stroke="transparent" points="94,-492.5 94,-514.5 126,-514.5 126,-492.5 94,-492.5"/>
<text text-anchor="start" x="96" y="-501.6" font-family="Lato" font-size="8.00">string</text>
<polygon fill="#dddddd" stroke="transparent" points="126,-492.5 126,-514.5 312,-514.5 312,-492.5 126,-492.5"/>
<text text-anchor="start" x="128" y="-506.1" font-family="Lato" font-size="8.00">UNIQ; The identifier for the organization. Each</text>
<text text-anchor="start" x="128" y="-497.1" font-family="Lato" font-size="8.00">organization must have a unique identifier.</text>
<polygon fill="#dddddd" stroke="transparent" points="8,-479.5 8,-492.5 94,-492.5 94,-479.5 8,-479.5"/>
<text text-anchor="start" x="10" y="-485.1" font-family="Lato" font-weight="bold" font-size="8.00">name</text>
<polygon fill="#dddddd" stroke="transparent" points="94,-479.5 94,-492.5 126,-492.5 126,-479.5 94,-479.5"/>
<text text-anchor="start" x="96" y="-484.1" font-family="Lato" font-size="8.00">string</text>
<polygon fill="#dddddd" stroke="transparent" points="126,-479.5 126,-492.5 312,-492.5 312,-479.5 126,-479.5"/>
<text text-anchor="start" x="128" y="-484.1" font-family="Lato" font-size="8.00">The official or public name of the organization.</text>
<polygon fill="#dddddd" stroke="transparent" points="8,-459.5 8,-479.5 94,-479.5 94,-459.5 8,-459.5"/>
<text text-anchor="start" x="10" y="-468.6" font-family="Lato" font-weight="bold" font-size="8.00">alternate_name</text>
<polygon fill="#dddddd" stroke="transparent" points="94,-459.5 94,-479.5 126,-479.5 126,-459.5 94,-459.5"/>
<text text-anchor="start" x="96" y="-467.6" font-family="Lato" font-size="8.00">string</text>
<polygon fill="#dddddd" stroke="transparent" points="126,-459.5 126,-479.5 312,-479.5 312,-459.5 126,-459.5"/>
<text text-anchor="start" x="128" y="-472.1" font-family="Lato" text-decoration="line-through" font-size="8.00">NULL</text>
<text text-anchor="start" x="148" y="-472.1" font-family="Lato" font-size="8.00">; An (optional) alternative or commonly</text>
<text text-anchor="start" x="128" y="-464.1" font-family="Lato" font-size="8.00">used name for the organization.</text>
<polygon fill="#dddddd" stroke="transparent" points="8,-428.5 8,-459.5 94,-459.5 94,-428.5 8,-428.5"/>
<text text-anchor="start" x="10" y="-443.1" font-family="Lato" font-weight="bold" font-size="8.00">description</text>
<polygon fill="#dddddd" stroke="transparent" points="94,-428.5 94,-459.5 126,-459.5 126,-428.5 94,-428.5"/>
<text text-anchor="start" x="96" y="-442.1" font-family="Lato" font-size="8.00">string</text>
<polygon fill="#dddddd" stroke="transparent" points="126,-428.5 126,-459.5 312,-459.5 312,-428.5 126,-428.5"/>
<text text-anchor="start" x="128" y="-451.1" font-family="Lato" font-size="8.00">A free text description containing a brief summary</text>
<text text-anchor="start" x="128" y="-442.1" font-family="Lato" font-size="8.00">about the organization. It can contain markup such</text>
<text text-anchor="start" x="128" y="-433.1" font-family="Lato" font-size="8.00">as HTML or Markdown.</text>
<polygon fill="#dddddd" stroke="transparent" points="8,-408.5 8,-428.5 94,-428.5 94,-408.5 8,-408.5"/>
<text text-anchor="start" x="10" y="-417.6" font-family="Lato" font-weight="bold" font-size="8.00">email</text>
<polygon fill="#dddddd" stroke="transparent" points="94,-408.5 94,-428.5 126,-428.5 126,-408.5 94,-408.5"/>
<text text-anchor="start" x="96" y="-416.6" font-family="Lato" font-size="8.00">string</text>
<polygon fill="#dddddd" stroke="transparent" points="126,-408.5 126,-428.5 312,-428.5 312,-408.5 126,-408.5"/>
<text text-anchor="start" x="128" y="-421.1" font-family="Lato" text-decoration="line-through" font-size="8.00">NULL</text>
<text text-anchor="start" x="148" y="-421.1" font-family="Lato" font-size="8.00">; The contact e&#45;mail address for the</text>
<text text-anchor="start" x="128" y="-413.1" font-family="Lato" font-size="8.00">organization.</text>
<polygon fill="#dddddd" stroke="transparent" points="8,-388.5 8,-408.5 94,-408.5 94,-388.5 8,-388.5"/>
<text text-anchor="start" x="10" y="-397.6" font-family="Lato" font-weight="bold" font-size="8.00">website</text>
<polygon fill="#dddddd" stroke="transparent" points="94,-388.5 94,-408.5 126,-408.5 126,-388.5 94,-388.5"/>
<text text-anchor="start" x="96" y="-396.6" font-family="Lato" font-size="8.00">string</text>
<polygon fill="#dddddd" stroke="transparent" points="126,-388.5 126,-408.5 312,-408.5 312,-388.5 126,-388.5"/>
<text text-anchor="start" x="128" y="-401.1" font-family="Lato" text-decoration="line-through" font-size="8.00">NULL</text>
<text text-anchor="start" x="148" y="-401.1" font-family="Lato" font-size="8.00">; The URL (website address) of the</text>
<text text-anchor="start" x="128" y="-393.1" font-family="Lato" font-size="8.00">organization.</text>
<polygon fill="#dddddd" stroke="transparent" points="8,-368.5 8,-388.5 94,-388.5 94,-368.5 8,-368.5"/>
<text text-anchor="start" x="10" y="-377.6" font-family="Lato" font-weight="bold" font-size="8.00">tax_status</text>
<polygon fill="#dddddd" stroke="transparent" points="94,-368.5 94,-388.5 126,-388.5 126,-368.5 94,-368.5"/>
<text text-anchor="start" x="96" y="-376.6" font-family="Lato" font-size="8.00">string</text>
<polygon fill="#dddddd" stroke="transparent" points="126,-368.5 126,-388.5 312,-388.5 312,-368.5 126,-368.5"/>
<text text-anchor="start" x="128" y="-381.1" font-family="Lato" text-decoration="line-through" font-size="8.00">NULL</text>
<text text-anchor="start" x="148" y="-381.1" font-family="Lato" font-size="8.00">; DEPRECATED: Government assigned tax</text>
<text text-anchor="start" x="128" y="-373.1" font-family="Lato" font-size="8.00">designation for tax&#45;exempt organizations.</text>
<polygon fill="#dddddd" stroke="transparent" points="8,-340.5 8,-368.5 94,-368.5 94,-340.5 8,-340.5"/>
<text text-anchor="start" x="10" y="-353.6" font-family="Lato" font-weight="bold" font-size="8.00">tax_id</text>
<polygon fill="#dddddd" stroke="transparent" points="94,-340.5 94,-368.5 126,-368.5 126,-340.5 94,-340.5"/>
<text text-anchor="start" x="96" y="-352.6" font-family="Lato" font-size="8.00">string</text>
<polygon fill="#dddddd" stroke="transparent" points="126,-340.5 126,-368.5 312,-368.5 312,-340.5 126,-340.5"/>
<text text-anchor="start" x="128" y="-361.1" font-family="Lato" text-decoration="line-through" font-size="8.00">NULL</text>
<text text-anchor="start" x="148" y="-361.1" font-family="Lato" font-size="8.00">; DEPRECATED: A government issued</text>
<text text-anchor="start" x="128" y="-353.1" font-family="Lato" font-size="8.00">identifier used for the purpose of tax</text>
<text text-anchor="start" x="128" y="-345.1" font-family="Lato" font-size="8.00">administration.</text>
<polygon fill="#dddddd" stroke="transparent" points="8,-320.5 8,-340.5 94,-340.5 94,-320.5 8,-320.5"/>
<text text-anchor="start" x="10" y="-329.6" font-family="Lato" font-weight="bold" font-size="8.00">year_incorporated</text>
<polygon fill="#dddddd" stroke="transparent" points="94,-320.5 94,-340.5 126,-340.5 126,-320.5 94,-320.5"/>
<text text-anchor="start" x="96" y="-328.6" font-family="Lato" font-size="8.00">number</text>
<polygon fill="#dddddd" stroke="transparent" points="126,-320.5 126,-340.5 312,-340.5 312,-320.5 126,-320.5"/>
<text text-anchor="start" x="128" y="-333.1" font-family="Lato" text-decoration="line-through" font-size="8.00">NULL</text>
<text text-anchor="start" x="148" y="-333.1" font-family="Lato" font-size="8.00">; The year in which the organization</text>
<text text-anchor="start" x="128" y="-325.1" font-family="Lato" font-size="8.00">was legally formed.</text>
<polygon fill="#dddddd" stroke="transparent" points="8,-300.5 8,-320.5 94,-320.5 94,-300.5 8,-300.5"/>
<text text-anchor="start" x="10" y="-309.6" font-family="Lato" font-weight="bold" font-size="8.00">legal_status</text>
<polygon fill="#dddddd" stroke="transparent" points="94,-300.5 94,-320.5 126,-320.5 126,-300.5 94,-300.5"/>
<text text-anchor="start" x="96" y="-308.6" font-family="Lato" font-size="8.00">string</text>
<polygon fill="#dddddd" stroke="transparent" points="126,-300.5 126,-320.5 312,-320.5 312,-300.5 126,-300.5"/>
<text text-anchor="start" x="128" y="-313.1" font-family="Lato" text-decoration="line-through" font-size="8.00">NULL</text>
<text text-anchor="start" x="148" y="-313.1" font-family="Lato" font-size="8.00">; The legal conditions that an</text>
<text text-anchor="start" x="128" y="-305.1" font-family="Lato" font-size="8.00">organization is operating under.</text>
<polygon fill="#dddddd" stroke="transparent" points="8,-272.5 8,-300.5 94,-300.5 94,-272.5 8,-272.5"/>
<text text-anchor="start" x="10" y="-285.6" font-family="Lato" font-weight="bold" font-size="8.00">logo</text>
<polygon fill="#dddddd" stroke="transparent" points="94,-272.5 94,-300.5 126,-300.5 126,-272.5 94,-272.5"/>
<text text-anchor="start" x="96" y="-284.6" font-family="Lato" font-size="8.00">string</text>
<polygon fill="#dddddd" stroke="transparent" points="126,-272.5 126,-300.5 312,-300.5 312,-272.5 126,-272.5"/>
<text text-anchor="start" x="128" y="-293.1" font-family="Lato" text-decoration="line-through" font-size="8.00">NULL</text>
<text text-anchor="start" x="148" y="-293.1" font-family="Lato" font-size="8.00">; A URL to an image associated with the</text>
<text text-anchor="start" x="128" y="-285.1" font-family="Lato" font-size="8.00">organization which can be presented alongside its</text>
<text text-anchor="start" x="128" y="-277.1" font-family="Lato" font-size="8.00">name.</text>
<polygon fill="#dddddd" stroke="transparent" points="8,-220.5 8,-272.5 94,-272.5 94,-220.5 8,-220.5"/>
<text text-anchor="start" x="10" y="-245.6" font-family="Lato" font-weight="bold" font-size="8.00">uri</text>
<polygon fill="#dddddd" stroke="transparent" points="94,-220.5 94,-272.5 126,-272.5 126,-220.5 94,-220.5"/>
<text text-anchor="start" x="96" y="-244.6" font-family="Lato" font-size="8.00">string</text>
<polygon fill="#dddddd" stroke="transparent" points="126,-220.5 126,-272.5 312,-272.5 312,-220.5 126,-220.5"/>
<text text-anchor="start" x="128" y="-265.1" font-family="Lato" text-decoration="line-through" font-size="8.00">NULL</text>
<text text-anchor="start" x="148" y="-265.1" font-family="Lato" font-size="8.00">; A persistent identifier to uniquely</text>
<text text-anchor="start" x="128" y="-257.1" font-family="Lato" font-size="8.00">identify the organization such as those provided</text>
<text text-anchor="start" x="128" y="-249.1" font-family="Lato" font-size="8.00">by Open Corporates or some other relevant URI</text>
<text text-anchor="start" x="128" y="-241.1" font-family="Lato" font-size="8.00">provider. This is not for listing the website of</text>
<text text-anchor="start" x="128" y="-233.1" font-family="Lato" font-size="8.00">the organization: that can be done through the</text>
<text text-anchor="start" x="128" y="-225.1" font-family="Lato" font-size="8.00">website field of the Organization.</text>
<polygon fill="#dddddd" stroke="transparent" points="8,-200.5 8,-220.5 94,-220.5 94,-200.5 8,-200.5"/>
<text text-anchor="start" x="10" y="-209.6" font-family="Lato" font-weight="bold" font-size="8.00">parent_organization_id</text>
<polygon fill="#dddddd" stroke="transparent" points="94,-200.5 94,-220.5 126,-220.5 126,-200.5 94,-200.5"/>
<text text-anchor="start" x="96" y="-208.6" font-family="Lato" font-size="8.00">string</text>
<polygon fill="#dddddd" stroke="transparent" points="126,-200.5 126,-220.5 312,-220.5 312,-200.5 126,-200.5"/>
<text text-anchor="start" x="128" y="-213.1" font-family="Lato" text-decoration="line-through" font-size="8.00">NULL</text>
<text text-anchor="start" x="148" y="-213.1" font-family="Lato" font-size="8.00">; The identifier of the organization&#39;s</text>
<text text-anchor="start" x="128" y="-205.1" font-family="Lato" font-size="8.00">parent organization.</text>
</g>
<!-- service -->
<g id="service" class="node">
<title>service</title>
<style>@font-face{font-family:"Lato";font-style:normal;font-weight:400;src:local("Lato Regular"),local("Lato-Regular"),url(../_static/fonts/Lato-Regular.ttf) format("truetype")}</style><polygon fill="white" stroke="transparent" points="684,-871.5 356,-871.5 356,-357.5 684,-357.5 684,-871.5"/>
<polygon fill="black" stroke="transparent" points="364,-361.5 364,-867.5 676,-867.5 676,-361.5 364,-361.5"/>
<polygon fill="#77dd77" stroke="transparent" points="364,-837.5 364,-867.5 676,-867.5 676,-837.5 364,-837.5"/>
<text text-anchor="start" x="504.5" y="-858.5" font-family="Lato" font-weight="bold" font-size="10.00">service</text>
<text text-anchor="start" x="400.5" y="-850.1" font-family="Lato" font-size="8.00">The details of the services provided by organizations to a range of</text>
<text text-anchor="start" x="489.5" y="-842.1" font-family="Lato" font-size="8.00">different groups.</text>
<polygon fill="#dddddd" stroke="transparent" points="364,-815.5 364,-837.5 453,-837.5 453,-815.5 364,-815.5"/>
<text text-anchor="start" x="366" y="-825.6" font-family="Lato" font-weight="bold" font-size="8.00">id</text>
<polygon fill="#dddddd" stroke="transparent" points="453,-815.5 453,-837.5 490,-837.5 490,-815.5 453,-815.5"/>
<text text-anchor="start" x="455" y="-824.6" font-family="Lato" font-size="8.00">string</text>
<polygon fill="#dddddd" stroke="transparent" points="490,-815.5 490,-837.5 676,-837.5 676,-815.5 490,-815.5"/>
<text text-anchor="start" x="492" y="-829.1" font-family="Lato" font-size="8.00">UNIQ; The identifier for the service. Each service</text>
<text text-anchor="start" x="492" y="-820.1" font-family="Lato" font-size="8.00">must have a unique identifier.</text>
<polygon fill="#dddddd" stroke="transparent" points="364,-793.5 364,-815.5 453,-815.5 453,-793.5 364,-793.5"/>
<text text-anchor="start" x="366" y="-803.6" font-family="Lato" font-weight="bold" font-size="8.00">organization_id</text>
<polygon fill="#dddddd" stroke="transparent" points="453,-793.5 453,-815.5 490,-815.5 490,-793.5 453,-793.5"/>
<text text-anchor="start" x="455" y="-802.6" font-family="Lato" font-size="8.00">string</text>
<polygon fill="#dddddd" stroke="transparent" points="490,-793.5 490,-815.5 676,-815.5 676,-793.5 490,-793.5"/>
<text text-anchor="start" x="492" y="-807.1" font-family="Lato" font-size="8.00">The identifier of the organization that provides</text>
<text text-anchor="start" x="492" y="-798.1" font-family="Lato" font-size="8.00">this service.</text>
<polygon fill="#dddddd" stroke="transparent" points="364,-773.5 364,-793.5 453,-793.5 453,-773.5 364,-773.5"/>
<text text-anchor="start" x="366" y="-782.6" font-family="Lato" font-weight="bold" font-size="8.00">program_id</text>
<polygon fill="#dddddd" stroke="transparent" points="453,-773.5 453,-793.5 490,-793.5 490,-773.5 453,-773.5"/>
<text text-anchor="start" x="455" y="-781.6" font-family="Lato" font-size="8.00">string</text>
<polygon fill="#dddddd" stroke="transparent" points="490,-773.5 490,-793.5 676,-793.5 676,-773.5 490,-773.5"/>
<text text-anchor="start" x="492" y="-786.1" font-family="Lato" text-decoration="line-through" font-size="8.00">NULL</text>
<text text-anchor="start" x="512" y="-786.1" font-family="Lato" font-size="8.00">; The identifier of the program this</text>
<text text-anchor="start" x="492" y="-778.1" font-family="Lato" font-size="8.00">service is delivered under.</text>
<polygon fill="#dddddd" stroke="transparent" points="364,-760.5 364,-773.5 453,-773.5 453,-760.5 364,-760.5"/>
<text text-anchor="start" x="366" y="-766.1" font-family="Lato" font-weight="bold" font-size="8.00">name</text>
<polygon fill="#dddddd" stroke="transparent" points="453,-760.5 453,-773.5 490,-773.5 490,-760.5 453,-760.5"/>
<text text-anchor="start" x="455" y="-765.1" font-family="Lato" font-size="8.00">string</text>
<polygon fill="#dddddd" stroke="transparent" points="490,-760.5 490,-773.5 676,-773.5 676,-760.5 490,-760.5"/>
<text text-anchor="start" x="492" y="-765.1" font-family="Lato" font-size="8.00">The official or public name of the service.</text>
<polygon fill="#dddddd" stroke="transparent" points="364,-740.5 364,-760.5 453,-760.5 453,-740.5 364,-740.5"/>
<text text-anchor="start" x="366" y="-749.6" font-family="Lato" font-weight="bold" font-size="8.00">alternate_name</text>
<polygon fill="#dddddd" stroke="transparent" points="453,-740.5 453,-760.5 490,-760.5 490,-740.5 453,-740.5"/>
<text text-anchor="start" x="455" y="-748.6" font-family="Lato" font-size="8.00">string</text>
<polygon fill="#dddddd" stroke="transparent" points="490,-740.5 490,-760.5 676,-760.5 676,-740.5 490,-740.5"/>
<text text-anchor="start" x="492" y="-753.1" font-family="Lato" text-decoration="line-through" font-size="8.00">NULL</text>
<text text-anchor="start" x="512" y="-753.1" font-family="Lato" font-size="8.00">; An (optional) alternative name for</text>
<text text-anchor="start" x="492" y="-745.1" font-family="Lato" font-size="8.00">this service.</text>
<polygon fill="#dddddd" stroke="transparent" points="364,-720.5 364,-740.5 453,-740.5 453,-720.5 364,-720.5"/>
<text text-anchor="start" x="366" y="-729.6" font-family="Lato" font-weight="bold" font-size="8.00">description</text>
<polygon fill="#dddddd" stroke="transparent" points="453,-720.5 453,-740.5 490,-740.5 490,-720.5 453,-720.5"/>
<text text-anchor="start" x="455" y="-728.6" font-family="Lato" font-size="8.00">string</text>
<polygon fill="#dddddd" stroke="transparent" points="490,-720.5 490,-740.5 676,-740.5 676,-720.5 490,-720.5"/>
<text text-anchor="start" x="492" y="-733.1" font-family="Lato" text-decoration="line-through" font-size="8.00">NULL</text>
<text text-anchor="start" x="512" y="-733.1" font-family="Lato" font-size="8.00">; A free text description of the</text>
<text text-anchor="start" x="492" y="-725.1" font-family="Lato" font-size="8.00">service.</text>
<polygon fill="#dddddd" stroke="transparent" points="364,-707.5 364,-720.5 453,-720.5 453,-707.5 364,-707.5"/>
<text text-anchor="start" x="366" y="-713.1" font-family="Lato" font-weight="bold" font-size="8.00">url</text>
<polygon fill="#dddddd" stroke="transparent" points="453,-707.5 453,-720.5 490,-720.5 490,-707.5 453,-707.5"/>
<text text-anchor="start" x="455" y="-712.1" font-family="Lato" font-size="8.00">string</text>
<polygon fill="#dddddd" stroke="transparent" points="490,-707.5 490,-720.5 676,-720.5 676,-707.5 490,-707.5"/>
<text text-anchor="start" x="492" y="-713.1" font-family="Lato" text-decoration="line-through" font-size="8.00">NULL</text>
<text text-anchor="start" x="512" y="-713.1" font-family="Lato" font-size="8.00">; URL of the service</text>
<polygon fill="#dddddd" stroke="transparent" points="364,-687.5 364,-707.5 453,-707.5 453,-687.5 364,-687.5"/>
<text text-anchor="start" x="366" y="-696.6" font-family="Lato" font-weight="bold" font-size="8.00">email</text>
<polygon fill="#dddddd" stroke="transparent" points="453,-687.5 453,-707.5 490,-707.5 490,-687.5 453,-687.5"/>
<text text-anchor="start" x="455" y="-695.6" font-family="Lato" font-size="8.00">string</text>
<polygon fill="#dddddd" stroke="transparent" points="490,-687.5 490,-707.5 676,-707.5 676,-687.5 490,-687.5"/>
<text text-anchor="start" x="492" y="-700.1" font-family="Lato" text-decoration="line-through" font-size="8.00">NULL</text>
<text text-anchor="start" x="512" y="-700.1" font-family="Lato" font-size="8.00">; An email address which can be used to</text>
<text text-anchor="start" x="492" y="-692.1" font-family="Lato" font-size="8.00">contact the service provider.</text>
<polygon fill="#dddddd" stroke="transparent" points="364,-665.5 364,-687.5 453,-687.5 453,-665.5 364,-665.5"/>
<text text-anchor="start" x="366" y="-675.6" font-family="Lato" font-weight="bold" font-size="8.00">status</text>
<polygon fill="#dddddd" stroke="transparent" points="453,-665.5 453,-687.5 490,-687.5 490,-665.5 453,-665.5"/>
<text text-anchor="start" x="455" y="-674.6" font-family="Lato" font-size="8.00">string</text>
<polygon fill="#dddddd" stroke="transparent" points="490,-665.5 490,-687.5 676,-687.5 676,-665.5 490,-665.5"/>
<text text-anchor="start" x="492" y="-679.1" font-family="Lato" font-size="8.00">The current status of the service which can be</text>
<text text-anchor="start" x="492" y="-670.1" font-family="Lato" font-size="8.00">active, inactive, defunct, or temporarily closed.</text>
<polygon fill="#dddddd" stroke="transparent" points="364,-637.5 364,-665.5 453,-665.5 453,-637.5 364,-637.5"/>
<text text-anchor="start" x="366" y="-650.6" font-family="Lato" font-weight="bold" font-size="8.00">interpretation_services</text>
<polygon fill="#dddddd" stroke="transparent" points="453,-637.5 453,-665.5 490,-665.5 490,-637.5 453,-637.5"/>
<text text-anchor="start" x="455" y="-649.6" font-family="Lato" font-size="8.00">string</text>
<polygon fill="#dddddd" stroke="transparent" points="490,-637.5 490,-665.5 676,-665.5 676,-637.5 490,-637.5"/>
<text text-anchor="start" x="492" y="-658.1" font-family="Lato" text-decoration="line-through" font-size="8.00">NULL</text>
<text text-anchor="start" x="512" y="-658.1" font-family="Lato" font-size="8.00">; A free text description of any</text>
<text text-anchor="start" x="492" y="-650.1" font-family="Lato" font-size="8.00">interpretation services available for accessing</text>
<text text-anchor="start" x="492" y="-642.1" font-family="Lato" font-size="8.00">this service.</text>
<polygon fill="#dddddd" stroke="transparent" points="364,-617.5 364,-637.5 453,-637.5 453,-617.5 364,-617.5"/>
<text text-anchor="start" x="366" y="-626.6" font-family="Lato" font-weight="bold" font-size="8.00">application_process</text>
<polygon fill="#dddddd" stroke="transparent" points="453,-617.5 453,-637.5 490,-637.5 490,-617.5 453,-617.5"/>
<text text-anchor="start" x="455" y="-625.6" font-family="Lato" font-size="8.00">string</text>
<polygon fill="#dddddd" stroke="transparent" points="490,-617.5 490,-637.5 676,-637.5 676,-617.5 490,-617.5"/>
<text text-anchor="start" x="492" y="-630.1" font-family="Lato" text-decoration="line-through" font-size="8.00">NULL</text>
<text text-anchor="start" x="512" y="-630.1" font-family="Lato" font-size="8.00">; A free text description of the steps</text>
<text text-anchor="start" x="492" y="-622.1" font-family="Lato" font-size="8.00">needed to access this service.</text>
<polygon fill="#dddddd" stroke="transparent" points="364,-597.5 364,-617.5 453,-617.5 453,-597.5 364,-597.5"/>
<text text-anchor="start" x="366" y="-606.6" font-family="Lato" font-weight="bold" font-size="8.00">wait_time</text>
<polygon fill="#dddddd" stroke="transparent" points="453,-597.5 453,-617.5 490,-617.5 490,-597.5 453,-597.5"/>
<text text-anchor="start" x="455" y="-605.6" font-family="Lato" font-size="8.00">string</text>
<polygon fill="#dddddd" stroke="transparent" points="490,-597.5 490,-617.5 676,-617.5 676,-597.5 490,-597.5"/>
<text text-anchor="start" x="492" y="-610.1" font-family="Lato" text-decoration="line-through" font-size="8.00">NULL</text>
<text text-anchor="start" x="512" y="-610.1" font-family="Lato" font-size="8.00">; DEPRECATED: The time a client may</text>
<text text-anchor="start" x="492" y="-602.1" font-family="Lato" font-size="8.00">expect to wait before receiving a service.</text>
<polygon fill="#dddddd" stroke="transparent" points="364,-553.5 364,-597.5 453,-597.5 453,-553.5 364,-553.5"/>
<text text-anchor="start" x="366" y="-574.6" font-family="Lato" font-weight="bold" font-size="8.00">accreditations</text>
<polygon fill="#dddddd" stroke="transparent" points="453,-553.5 453,-597.5 490,-597.5 490,-553.5 453,-553.5"/>
<text text-anchor="start" x="455" y="-573.6" font-family="Lato" font-size="8.00">string</text>
<polygon fill="#dddddd" stroke="transparent" points="490,-553.5 490,-597.5 676,-597.5 676,-553.5 490,-553.5"/>
<text text-anchor="start" x="492" y="-590.1" font-family="Lato" text-decoration="line-through" font-size="8.00">NULL</text>
<text text-anchor="start" x="512" y="-590.1" font-family="Lato" font-size="8.00">; A free text description of any</text>
<text text-anchor="start" x="492" y="-582.1" font-family="Lato" font-size="8.00">accreditations. Accreditation is the formal</text>
<text text-anchor="start" x="492" y="-574.1" font-family="Lato" font-size="8.00">evaluation of an organization or program against</text>
<text text-anchor="start" x="492" y="-566.1" font-family="Lato" font-size="8.00">best practice standards set by an accrediting</text>
<text text-anchor="start" x="492" y="-558.1" font-family="Lato" font-size="8.00">organization.</text>
<polygon fill="#dddddd" stroke="transparent" points="364,-533.5 364,-553.5 453,-553.5 453,-533.5 364,-533.5"/>
<text text-anchor="start" x="366" y="-542.6" font-family="Lato" font-weight="bold" font-size="8.00">eligibility_description</text>
<polygon fill="#dddddd" stroke="transparent" points="453,-533.5 453,-553.5 490,-553.5 490,-533.5 453,-533.5"/>
<text text-anchor="start" x="455" y="-541.6" font-family="Lato" font-size="8.00">string</text>
<polygon fill="#dddddd" stroke="transparent" points="490,-533.5 490,-553.5 676,-553.5 676,-533.5 490,-533.5"/>
<text text-anchor="start" x="492" y="-546.1" font-family="Lato" text-decoration="line-through" font-size="8.00">NULL</text>
<text text-anchor="start" x="512" y="-546.1" font-family="Lato" font-size="8.00">; A free text description of the type</text>
<text text-anchor="start" x="492" y="-538.1" font-family="Lato" font-size="8.00">of person for whom this service is intended.</text>
<polygon fill="#dddddd" stroke="transparent" points="364,-513.5 364,-533.5 453,-533.5 453,-513.5 364,-513.5"/>
<text text-anchor="start" x="366" y="-522.6" font-family="Lato" font-weight="bold" font-size="8.00">minimum_age</text>
<polygon fill="#dddddd" stroke="transparent" points="453,-513.5 453,-533.5 490,-533.5 490,-513.5 453,-513.5"/>
<text text-anchor="start" x="455" y="-521.6" font-family="Lato" font-size="8.00">number</text>
<polygon fill="#dddddd" stroke="transparent" points="490,-513.5 490,-533.5 676,-533.5 676,-513.5 490,-513.5"/>
<text text-anchor="start" x="492" y="-526.1" font-family="Lato" text-decoration="line-through" font-size="8.00">NULL</text>
<text text-anchor="start" x="512" y="-526.1" font-family="Lato" font-size="8.00">; The minimum age of a person required</text>
<text text-anchor="start" x="492" y="-518.1" font-family="Lato" font-size="8.00">to meet this eligibility requirement.</text>
<polygon fill="#dddddd" stroke="transparent" points="364,-493.5 364,-513.5 453,-513.5 453,-493.5 364,-493.5"/>
<text text-anchor="start" x="366" y="-502.6" font-family="Lato" font-weight="bold" font-size="8.00">maximum_age</text>
<polygon fill="#dddddd" stroke="transparent" points="453,-493.5 453,-513.5 490,-513.5 490,-493.5 453,-493.5"/>
<text text-anchor="start" x="455" y="-501.6" font-family="Lato" font-size="8.00">number</text>
<polygon fill="#dddddd" stroke="transparent" points="490,-493.5 490,-513.5 676,-513.5 676,-493.5 490,-493.5"/>
<text text-anchor="start" x="492" y="-506.1" font-family="Lato" text-decoration="line-through" font-size="8.00">NULL</text>
<text text-anchor="start" x="512" y="-506.1" font-family="Lato" font-size="8.00">; The maximum age of a person required</text>
<text text-anchor="start" x="492" y="-498.1" font-family="Lato" font-size="8.00">to meet this eligibility requirement.</text>
<polygon fill="#dddddd" stroke="transparent" points="364,-473.5 364,-493.5 453,-493.5 453,-473.5 364,-473.5"/>
<text text-anchor="start" x="366" y="-482.6" font-family="Lato" font-weight="bold" font-size="8.00">assured_date</text>
<polygon fill="#dddddd" stroke="transparent" points="453,-473.5 453,-493.5 490,-493.5 490,-473.5 453,-473.5"/>
<text text-anchor="start" x="455" y="-481.6" font-family="Lato" font-size="8.00">date</text>
<polygon fill="#dddddd" stroke="transparent" points="490,-473.5 490,-493.5 676,-493.5 676,-473.5 490,-473.5"/>
<text text-anchor="start" x="492" y="-486.1" font-family="Lato" text-decoration="line-through" font-size="8.00">NULL</text>
<text text-anchor="start" x="512" y="-486.1" font-family="Lato" font-size="8.00">; The date that the information about</text>
<text text-anchor="start" x="492" y="-478.1" font-family="Lato" font-size="8.00">the service was last checked.</text>
<polygon fill="#dddddd" stroke="transparent" points="364,-445.5 364,-473.5 453,-473.5 453,-445.5 364,-445.5"/>
<text text-anchor="start" x="366" y="-458.6" font-family="Lato" font-weight="bold" font-size="8.00">assurer_email</text>
<polygon fill="#dddddd" stroke="transparent" points="453,-445.5 453,-473.5 490,-473.5 490,-445.5 453,-445.5"/>
<text text-anchor="start" x="455" y="-457.6" font-family="Lato" font-size="8.00">string</text>
<polygon fill="#dddddd" stroke="transparent" points="490,-445.5 490,-473.5 676,-473.5 676,-445.5 490,-445.5"/>
<text text-anchor="start" x="492" y="-466.1" font-family="Lato" text-decoration="line-through" font-size="8.00">NULL</text>
<text text-anchor="start" x="512" y="-466.1" font-family="Lato" font-size="8.00">; The contact e&#45;mail address for the</text>
<text text-anchor="start" x="492" y="-458.1" font-family="Lato" font-size="8.00">person or organization which last assured the</text>
<text text-anchor="start" x="492" y="-450.1" font-family="Lato" font-size="8.00">service.</text>
<polygon fill="#dddddd" stroke="transparent" points="364,-409.5 364,-445.5 453,-445.5 453,-409.5 364,-409.5"/>
<text text-anchor="start" x="366" y="-426.6" font-family="Lato" font-weight="bold" font-size="8.00">licenses</text>
<polygon fill="#dddddd" stroke="transparent" points="453,-409.5 453,-445.5 490,-445.5 490,-409.5 453,-409.5"/>
<text text-anchor="start" x="455" y="-425.6" font-family="Lato" font-size="8.00">string</text>
<polygon fill="#dddddd" stroke="transparent" points="490,-409.5 490,-445.5 676,-445.5 676,-409.5 490,-409.5"/>
<text text-anchor="start" x="492" y="-438.1" font-family="Lato" text-decoration="line-through" font-size="8.00">NULL</text>
<text text-anchor="start" x="512" y="-438.1" font-family="Lato" font-size="8.00">; DEPRECATED: An organization may have</text>
<text text-anchor="start" x="492" y="-430.1" font-family="Lato" font-size="8.00">a license issued by a government entity to operate</text>
<text text-anchor="start" x="492" y="-422.1" font-family="Lato" font-size="8.00">legally. A list of any such licenses can be</text>
<text text-anchor="start" x="492" y="-414.1" font-family="Lato" font-size="8.00">provided here.</text>
<polygon fill="#dddddd" stroke="transparent" points="364,-389.5 364,-409.5 453,-409.5 453,-389.5 364,-389.5"/>
<text text-anchor="start" x="366" y="-398.6" font-family="Lato" font-weight="bold" font-size="8.00">alert</text>
<polygon fill="#dddddd" stroke="transparent" points="453,-389.5 453,-409.5 490,-409.5 490,-389.5 453,-389.5"/>
<text text-anchor="start" x="455" y="-397.6" font-family="Lato" font-size="8.00">string</text>
<polygon fill="#dddddd" stroke="transparent" points="490,-389.5 490,-409.5 676,-409.5 676,-389.5 490,-389.5"/>
<text text-anchor="start" x="492" y="-402.1" font-family="Lato" text-decoration="line-through" font-size="8.00">NULL</text>
<text text-anchor="start" x="512" y="-402.1" font-family="Lato" font-size="8.00">; A description of any short term</text>
<text text-anchor="start" x="492" y="-394.1" font-family="Lato" font-size="8.00">alerts concerning the service.</text>
<polygon fill="#dddddd" stroke="transparent" points="364,-361.5 364,-389.5 453,-389.5 453,-361.5 364,-361.5"/>
<text text-anchor="start" x="366" y="-374.6" font-family="Lato" font-weight="bold" font-size="8.00">last_modified</text>
<polygon fill="#dddddd" stroke="transparent" points="453,-361.5 453,-389.5 490,-389.5 490,-361.5 453,-361.5"/>
<text text-anchor="start" x="455" y="-373.6" font-family="Lato" font-size="8.00">datetime</text>
<polygon fill="#dddddd" stroke="transparent" points="490,-361.5 490,-389.5 676,-389.5 676,-361.5 490,-361.5"/>
<text text-anchor="start" x="492" y="-382.1" font-family="Lato" text-decoration="line-through" font-size="8.00">NULL</text>
<text text-anchor="start" x="512" y="-382.1" font-family="Lato" font-size="8.00">; The datetime when the service, or any</text>
<text text-anchor="start" x="492" y="-374.1" font-family="Lato" font-size="8.00">related information about the service, has</text>
<text text-anchor="start" x="492" y="-366.1" font-family="Lato" font-size="8.00">changed. Should have millisecond accuracy.</text>
</g>
<!-- service&#45;&gt;organization -->
<g id="edge1" class="edge">
<title>service:i2&#45;&gt;organization:f1</title>
<style>@font-face{font-family:"Lato";font-style:normal;font-weight:400;src:local("Lato Regular"),local("Lato-Regular"),url(../_static/fonts/Lato-Regular.ttf) format("truetype")}</style><path fill="none" stroke="black" d="M363,-804.5C227.39,-804.5 448.61,-503.5 313,-503.5"/>
</g>
<!-- location -->
<g id="location" class="node">
<title>location</title>
<style>@font-face{font-family:"Lato";font-style:normal;font-weight:400;src:local("Lato Regular"),local("Lato-Regular"),url(../_static/fonts/Lato-Regular.ttf) format("truetype")}</style><polygon fill="white" stroke="transparent" points="683,-339 357,-339 357,0 683,0 683,-339"/>
<polygon fill="black" stroke="transparent" points="365,-4 365,-335 675,-335 675,-4 365,-4"/>
<polygon fill="#77dd77" stroke="transparent" points="365,-304.5 365,-334.5 675,-334.5 675,-304.5 365,-304.5"/>
<text text-anchor="start" x="501.5" y="-325.5" font-family="Lato" font-weight="bold" font-size="10.00">location</text>
<text text-anchor="start" x="397" y="-317.1" font-family="Lato" font-size="8.00">The locations where organizations operate. Locations may be virtual,</text>
<text text-anchor="start" x="435.5" y="-309.1" font-family="Lato" font-size="8.00">and one organization may have many locations.</text>
<polygon fill="#dddddd" stroke="transparent" points="365,-282.5 365,-304.5 457,-304.5 457,-282.5 365,-282.5"/>
<text text-anchor="start" x="367" y="-292.6" font-family="Lato" font-weight="bold" font-size="8.00">id</text>
<polygon fill="#dddddd" stroke="transparent" points="457,-282.5 457,-304.5 489,-304.5 489,-282.5 457,-282.5"/>
<text text-anchor="start" x="459" y="-291.6" font-family="Lato" font-size="8.00">string</text>
<polygon fill="#dddddd" stroke="transparent" points="489,-282.5 489,-304.5 675,-304.5 675,-282.5 489,-282.5"/>
<text text-anchor="start" x="491" y="-296.1" font-family="Lato" font-size="8.00">UNIQ; The identifier of the location. Each</text>
<text text-anchor="start" x="491" y="-287.1" font-family="Lato" font-size="8.00">location must have a unique identifier.</text>
<polygon fill="#dddddd" stroke="transparent" points="365,-260.5 365,-282.5 457,-282.5 457,-260.5 365,-260.5"/>
<text text-anchor="start" x="367" y="-270.6" font-family="Lato" font-weight="bold" font-size="8.00">location_type</text>
<polygon fill="#dddddd" stroke="transparent" points="457,-260.5 457,-282.5 489,-282.5 489,-260.5 457,-260.5"/>
<text text-anchor="start" x="459" y="-269.6" font-family="Lato" font-size="8.00">string</text>
<polygon fill="#dddddd" stroke="transparent" points="489,-260.5 489,-282.5 675,-282.5 675,-260.5 489,-260.5"/>
<text text-anchor="start" x="491" y="-274.1" font-family="Lato" font-size="8.00">The type of location, which may be either</text>
<text text-anchor="start" x="491" y="-265.1" font-family="Lato" font-size="8.00">physical, postal, or virtual.</text>
<polygon fill="#dddddd" stroke="transparent" points="365,-232.5 365,-260.5 457,-260.5 457,-232.5 365,-232.5"/>
<text text-anchor="start" x="367" y="-245.6" font-family="Lato" font-weight="bold" font-size="8.00">url</text>
<polygon fill="#dddddd" stroke="transparent" points="457,-232.5 457,-260.5 489,-260.5 489,-232.5 457,-232.5"/>
<text text-anchor="start" x="459" y="-244.6" font-family="Lato" font-size="8.00">string</text>
<polygon fill="#dddddd" stroke="transparent" points="489,-232.5 489,-260.5 675,-260.5 675,-232.5 489,-232.5"/>
<text text-anchor="start" x="491" y="-253.1" font-family="Lato" text-decoration="line-through" font-size="8.00">NULL</text>
<text text-anchor="start" x="511" y="-253.1" font-family="Lato" font-size="8.00">; If location_type is virtual, then</text>
<text text-anchor="start" x="491" y="-245.1" font-family="Lato" font-size="8.00">this field represents the URL of a virtual</text>
<text text-anchor="start" x="491" y="-237.1" font-family="Lato" font-size="8.00">location.</text>
<polygon fill="#dddddd" stroke="transparent" points="365,-172.5 365,-232.5 457,-232.5 457,-172.5 365,-172.5"/>
<text text-anchor="start" x="367" y="-201.6" font-family="Lato" font-weight="bold" font-size="8.00">organization_id</text>
<polygon fill="#dddddd" stroke="transparent" points="457,-172.5 457,-232.5 489,-232.5 489,-172.5 457,-172.5"/>
<text text-anchor="start" x="459" y="-200.6" font-family="Lato" font-size="8.00">string</text>
<polygon fill="#dddddd" stroke="transparent" points="489,-172.5 489,-232.5 675,-232.5 675,-172.5 489,-172.5"/>
<text text-anchor="start" x="491" y="-225.1" font-family="Lato" text-decoration="line-through" font-size="8.00">NULL</text>
<text text-anchor="start" x="511" y="-225.1" font-family="Lato" font-size="8.00">; The organization identifier for a</text>
<text text-anchor="start" x="491" y="-217.1" font-family="Lato" font-size="8.00">location. This is the organization that is</text>
<text text-anchor="start" x="491" y="-209.1" font-family="Lato" font-size="8.00">responsible for maintaining information about this</text>
<text text-anchor="start" x="491" y="-201.1" font-family="Lato" font-size="8.00">location. The identifier of the organization</text>
<text text-anchor="start" x="491" y="-193.1" font-family="Lato" font-size="8.00">should be given here. Details of the services the</text>
<text text-anchor="start" x="491" y="-185.1" font-family="Lato" font-size="8.00">organization delivers at this location should be</text>
<text text-anchor="start" x="491" y="-177.1" font-family="Lato" font-size="8.00">provided in the services_at_location table.</text>
<polygon fill="#dddddd" stroke="transparent" points="365,-159.5 365,-172.5 457,-172.5 457,-159.5 365,-159.5"/>
<text text-anchor="start" x="367" y="-165.1" font-family="Lato" font-weight="bold" font-size="8.00">name</text>
<polygon fill="#dddddd" stroke="transparent" points="457,-159.5 457,-172.5 489,-172.5 489,-159.5 457,-159.5"/>
<text text-anchor="start" x="459" y="-164.1" font-family="Lato" font-size="8.00">string</text>
<polygon fill="#dddddd" stroke="transparent" points="489,-159.5 489,-172.5 675,-172.5 675,-159.5 489,-159.5"/>
<text text-anchor="start" x="491" y="-165.1" font-family="Lato" text-decoration="line-through" font-size="8.00">NULL</text>
<text text-anchor="start" x="511" y="-165.1" font-family="Lato" font-size="8.00">; The name of the location.</text>
<polygon fill="#dddddd" stroke="transparent" points="365,-139.5 365,-159.5 457,-159.5 457,-139.5 365,-139.5"/>
<text text-anchor="start" x="367" y="-148.6" font-family="Lato" font-weight="bold" font-size="8.00">alternate_name</text>
<polygon fill="#dddddd" stroke="transparent" points="457,-139.5 457,-159.5 489,-159.5 489,-139.5 457,-139.5"/>
<text text-anchor="start" x="459" y="-147.6" font-family="Lato" font-size="8.00">string</text>
<polygon fill="#dddddd" stroke="transparent" points="489,-139.5 489,-159.5 675,-159.5 675,-139.5 489,-139.5"/>
<text text-anchor="start" x="491" y="-152.1" font-family="Lato" text-decoration="line-through" font-size="8.00">NULL</text>
<text text-anchor="start" x="511" y="-152.1" font-family="Lato" font-size="8.00">; An (optional) alternative name of the</text>
<text text-anchor="start" x="491" y="-144.1" font-family="Lato" font-size="8.00">location.</text>
<polygon fill="#dddddd" stroke="transparent" points="365,-119.5 365,-139.5 457,-139.5 457,-119.5 365,-119.5"/>
<text text-anchor="start" x="367" y="-128.6" font-family="Lato" font-weight="bold" font-size="8.00">description</text>
<polygon fill="#dddddd" stroke="transparent" points="457,-119.5 457,-139.5 489,-139.5 489,-119.5 457,-119.5"/>
<text text-anchor="start" x="459" y="-127.6" font-family="Lato" font-size="8.00">string</text>
<polygon fill="#dddddd" stroke="transparent" points="489,-119.5 489,-139.5 675,-139.5 675,-119.5 489,-119.5"/>
<text text-anchor="start" x="491" y="-132.1" font-family="Lato" text-decoration="line-through" font-size="8.00">NULL</text>
<text text-anchor="start" x="511" y="-132.1" font-family="Lato" font-size="8.00">; A free text description of the</text>
<text text-anchor="start" x="491" y="-124.1" font-family="Lato" font-size="8.00">location.</text>
<polygon fill="#dddddd" stroke="transparent" points="365,-91.5 365,-119.5 457,-119.5 457,-91.5 365,-91.5"/>
<text text-anchor="start" x="367" y="-104.6" font-family="Lato" font-weight="bold" font-size="8.00">transportation</text>
<polygon fill="#dddddd" stroke="transparent" points="457,-91.5 457,-119.5 489,-119.5 489,-91.5 457,-91.5"/>
<text text-anchor="start" x="459" y="-103.6" font-family="Lato" font-size="8.00">string</text>
<polygon fill="#dddddd" stroke="transparent" points="489,-91.5 489,-119.5 675,-119.5 675,-91.5 489,-91.5"/>
<text text-anchor="start" x="491" y="-112.1" font-family="Lato" text-decoration="line-through" font-size="8.00">NULL</text>
<text text-anchor="start" x="511" y="-112.1" font-family="Lato" font-size="8.00">; A free text description of the access</text>
<text text-anchor="start" x="491" y="-104.1" font-family="Lato" font-size="8.00">to public or private transportation to and from</text>
<text text-anchor="start" x="491" y="-96.1" font-family="Lato" font-size="8.00">the location.</text>
<polygon fill="#dddddd" stroke="transparent" points="365,-71.5 365,-91.5 457,-91.5 457,-71.5 365,-71.5"/>
<text text-anchor="start" x="367" y="-80.6" font-family="Lato" font-weight="bold" font-size="8.00">latitude</text>
<polygon fill="#dddddd" stroke="transparent" points="457,-71.5 457,-91.5 489,-91.5 489,-71.5 457,-71.5"/>
<text text-anchor="start" x="459" y="-79.6" font-family="Lato" font-size="8.00">number</text>
<polygon fill="#dddddd" stroke="transparent" points="489,-71.5 489,-91.5 675,-91.5 675,-71.5 489,-71.5"/>
<text text-anchor="start" x="491" y="-84.1" font-family="Lato" text-decoration="line-through" font-size="8.00">NULL</text>
<text text-anchor="start" x="511" y="-84.1" font-family="Lato" font-size="8.00">; The latitude of the location</text>
<text text-anchor="start" x="491" y="-76.1" font-family="Lato" font-size="8.00">expressed in decimal degrees in WGS84 datum.</text>
<polygon fill="#dddddd" stroke="transparent" points="365,-51.5 365,-71.5 457,-71.5 457,-51.5 365,-51.5"/>
<text text-anchor="start" x="367" y="-60.6" font-family="Lato" font-weight="bold" font-size="8.00">longitude</text>
<polygon fill="#dddddd" stroke="transparent" points="457,-51.5 457,-71.5 489,-71.5 489,-51.5 457,-51.5"/>
<text text-anchor="start" x="459" y="-59.6" font-family="Lato" font-size="8.00">number</text>
<polygon fill="#dddddd" stroke="transparent" points="489,-51.5 489,-71.5 675,-71.5 675,-51.5 489,-51.5"/>
<text text-anchor="start" x="491" y="-64.1" font-family="Lato" text-decoration="line-through" font-size="8.00">NULL</text>
<text text-anchor="start" x="511" y="-64.1" font-family="Lato" font-size="8.00">; The longitude of the location</text>
<text text-anchor="start" x="491" y="-56.1" font-family="Lato" font-size="8.00">expressed in decimal degrees in WGS84 datum.</text>
<polygon fill="#dddddd" stroke="transparent" points="365,-23.5 365,-51.5 457,-51.5 457,-23.5 365,-23.5"/>
<text text-anchor="start" x="367" y="-36.6" font-family="Lato" font-weight="bold" font-size="8.00">external_identifier</text>
<polygon fill="#dddddd" stroke="transparent" points="457,-23.5 457,-51.5 489,-51.5 489,-23.5 457,-23.5"/>
<text text-anchor="start" x="459" y="-35.6" font-family="Lato" font-size="8.00">string</text>
<polygon fill="#dddddd" stroke="transparent" points="489,-23.5 489,-51.5 675,-51.5 675,-23.5 489,-23.5"/>
<text text-anchor="start" x="491" y="-44.1" font-family="Lato" text-decoration="line-through" font-size="8.00">NULL</text>
<text text-anchor="start" x="511" y="-44.1" font-family="Lato" font-size="8.00">; A third party identifier for the</text>
<text text-anchor="start" x="491" y="-36.1" font-family="Lato" font-size="8.00">location, which can be drawn from other services</text>
<text text-anchor="start" x="491" y="-28.1" font-family="Lato" font-size="8.00">e.g. UK UPRN.</text>
<polygon fill="#dddddd" stroke="transparent" points="365,-3.5 365,-23.5 457,-23.5 457,-3.5 365,-3.5"/>
<text text-anchor="start" x="367" y="-12.6" font-family="Lato" font-weight="bold" font-size="8.00">external_identifier_type</text>
<polygon fill="#dddddd" stroke="transparent" points="457,-3.5 457,-23.5 489,-23.5 489,-3.5 457,-3.5"/>
<text text-anchor="start" x="459" y="-11.6" font-family="Lato" font-size="8.00">string</text>
<polygon fill="#dddddd" stroke="transparent" points="489,-3.5 489,-23.5 675,-23.5 675,-3.5 489,-3.5"/>
<text text-anchor="start" x="491" y="-16.1" font-family="Lato" text-decoration="line-through" font-size="8.00">NULL</text>
<text text-anchor="start" x="511" y="-16.1" font-family="Lato" font-size="8.00">; The scheme used for the location&#39;s</text>
<text text-anchor="start" x="491" y="-8.1" font-family="Lato" font-size="8.00">external_identifier e.g. UK UPRN.</text>
</g>
<!-- location&#45;&gt;organization -->
<g id="edge2" class="edge">
<title>location:i4&#45;&gt;organization:f1</title>
<style>@font-face{font-family:"Lato";font-style:normal;font-weight:400;src:local("Lato Regular"),local("Lato-Regular"),url(../_static/fonts/Lato-Regular.ttf) format("truetype")}</style><path fill="none" stroke="black" d="M364,-202.5C296.16,-202.5 380.84,-503.5 313,-503.5"/>
</g>
</g>
</svg>

