<?xml version="1.0" encoding="UTF-8" standalone="no"?>
<!DOCTYPE svg PUBLIC "-//W3C//DTD SVG 1.1//EN"
 "http://www.w3.org/Graphics/SVG/1.1/DTD/svg11.dtd">
<!-- Generated by graphviz version 8.1.0 (20230707.0739)
 -->
<!-- Title: Changeme Pages: 1 -->
<svg width="736pt" height="918pt"
 viewBox="0.00 0.00 736.00 918.00" xmlns="http://www.w3.org/2000/svg" xmlns:xlink="http://www.w3.org/1999/xlink">
<g id="graph0" class="graph" transform="scale(1 1) rotate(0) translate(4 914)">
<title>Changeme</title>
<style>@font-face{font-family:"Lato";font-style:normal;font-weight:400;src:local("Lato Regular"),local("Lato-Regular"),url(../_static/fonts/Lato-Regular.ttf) format("truetype")}</style><polygon fill="white" stroke="none" points="-4,4 -4,-914 732,-914 732,4 -4,4"/>
<!-- organization -->
<g id="organization" class="node">
<title>organization</title>
<style>@font-face{font-family:"Lato";font-style:normal;font-weight:400;src:local("Lato Regular"),local("Lato-Regular"),url(../_static/fonts/Lato-Regular.ttf) format("truetype")}</style><polygon fill="white" stroke="none" points="346,-576 0,-576 0,-198 346,-198 346,-576"/>
<polygon fill="black" stroke="none" points="8,-202 8,-572 338,-572 338,-202 8,-202"/>
<polygon fill="#77dd77" stroke="none" points="8,-534 8,-572 338,-572 338,-534 8,-534"/>
<text text-anchor="start" x="141.13" y="-561.5" font-family="Lato" font-weight="bold" font-size="10.00">organization</text>
<text text-anchor="start" x="43.25" y="-553.4" font-family="Lato" font-size="8.00">The details about each organization delivering services. Each service</text>
<text text-anchor="start" x="42.13" y="-545.4" font-family="Lato" font-size="8.00">should be linked to the organization responsible for its delivery. One</text>
<text text-anchor="start" x="97.63" y="-537.4" font-family="Lato" font-size="8.00">organization may deliver many services.</text>
<polygon fill="#dddddd" stroke="none" points="8,-506 8,-534 103,-534 103,-506 8,-506"/>
<text text-anchor="start" x="10" y="-519.4" font-family="Lato" font-weight="bold" font-size="8.00">id</text>
<polygon fill="#dddddd" stroke="none" points="103,-506 103,-534 137,-534 137,-506 103,-506"/>
<text text-anchor="start" x="105" y="-518.4" font-family="Lato" font-size="8.00">string</text>
<polygon fill="#dddddd" stroke="none" points="137,-506 137,-534 338,-534 338,-506 137,-506"/>
<text text-anchor="start" x="139" y="-524.4" font-family="Lato" font-size="8.00">UNIQ; The identifier for the organization. Each</text>
<text text-anchor="start" x="139" y="-512.4" font-family="Lato" font-size="8.00">organization must have a unique identifier.</text>
<polygon fill="#dddddd" stroke="none" points="8,-490 8,-506 103,-506 103,-490 8,-490"/>
<text text-anchor="start" x="10" y="-497.4" font-family="Lato" font-weight="bold" font-size="8.00">name</text>
<polygon fill="#dddddd" stroke="none" points="103,-490 103,-506 137,-506 137,-490 103,-490"/>
<text text-anchor="start" x="105" y="-496.4" font-family="Lato" font-size="8.00">string</text>
<polygon fill="#dddddd" stroke="none" points="137,-490 137,-506 338,-506 338,-490 137,-490"/>
<text text-anchor="start" x="139" y="-496.4" font-family="Lato" font-size="8.00">The official or public name of the organization.</text>
<polygon fill="#dddddd" stroke="none" points="8,-470 8,-490 103,-490 103,-470 8,-470"/>
<text text-anchor="start" x="10" y="-479.4" font-family="Lato" font-weight="bold" font-size="8.00">alternate_name</text>
<polygon fill="#dddddd" stroke="none" points="103,-470 103,-490 137,-490 137,-470 103,-470"/>
<text text-anchor="start" x="105" y="-478.4" font-family="Lato" font-size="8.00">string</text>
<polygon fill="#dddddd" stroke="none" points="137,-470 137,-490 338,-490 338,-470 137,-470"/>
<text text-anchor="start" x="139" y="-481.4" font-family="Lato" text-decoration="line-through" font-size="8.00">NULL</text>
<text text-anchor="start" x="160" y="-481.4" font-family="Lato" font-size="8.00">; An (optional) alternative or commonly</text>
<text text-anchor="start" x="139" y="-473.4" font-family="Lato" font-size="8.00">used name for the organization.</text>
<polygon fill="#dddddd" stroke="none" points="8,-430 8,-470 103,-470 103,-430 8,-430"/>
<text text-anchor="start" x="10" y="-449.4" font-family="Lato" font-weight="bold" font-size="8.00">description</text>
<polygon fill="#dddddd" stroke="none" points="103,-430 103,-470 137,-470 137,-430 103,-430"/>
<text text-anchor="start" x="105" y="-448.4" font-family="Lato" font-size="8.00">string</text>
<polygon fill="#dddddd" stroke="none" points="137,-430 137,-470 338,-470 338,-430 137,-430"/>
<text text-anchor="start" x="139" y="-460.4" font-family="Lato" font-size="8.00">A free text description containing a brief summary</text>
<text text-anchor="start" x="139" y="-448.4" font-family="Lato" font-size="8.00">about the organization. It can contain markup such</text>
<text text-anchor="start" x="139" y="-436.4" font-family="Lato" font-size="8.00">as HTML or Markdown.</text>
<polygon fill="#dddddd" stroke="none" points="8,-410 8,-430 103,-430 103,-410 8,-410"/>
<text text-anchor="start" x="10" y="-419.4" font-family="Lato" font-weight="bold" font-size="8.00">email</text>
<polygon fill="#dddddd" stroke="none" points="103,-410 103,-430 137,-430 137,-410 103,-410"/>
<text text-anchor="start" x="105" y="-418.4" font-family="Lato" font-size="8.00">string</text>
<polygon fill="#dddddd" stroke="none" points="137,-410 137,-430 338,-430 338,-410 137,-410"/>
<text text-anchor="start" x="139" y="-421.4" font-family="Lato" text-decoration="line-through" font-size="8.00">NULL</text>
<text text-anchor="start" x="160" y="-421.4" font-family="Lato" font-size="8.00">; The contact e&#45;mail address for the</text>
<text text-anchor="start" x="139" y="-413.4" font-family="Lato" font-size="8.00">organization.</text>
<polygon fill="#dddddd" stroke="none" points="8,-390 8,-410 103,-410 103,-390 8,-390"/>
<text text-anchor="start" x="10" y="-399.4" font-family="Lato" font-weight="bold" font-size="8.00">website</text>
<polygon fill="#dddddd" stroke="none" points="103,-390 103,-410 137,-410 137,-390 103,-390"/>
<text text-anchor="start" x="105" y="-398.4" font-family="Lato" font-size="8.00">string</text>
<polygon fill="#dddddd" stroke="none" points="137,-390 137,-410 338,-410 338,-390 137,-390"/>
<text text-anchor="start" x="139" y="-401.4" font-family="Lato" text-decoration="line-through" font-size="8.00">NULL</text>
<text text-anchor="start" x="160" y="-401.4" font-family="Lato" font-size="8.00">; The URL (website address) of the</text>
<text text-anchor="start" x="139" y="-393.4" font-family="Lato" font-size="8.00">organization.</text>
<polygon fill="#dddddd" stroke="none" points="8,-370 8,-390 103,-390 103,-370 8,-370"/>
<text text-anchor="start" x="10" y="-379.4" font-family="Lato" font-weight="bold" font-size="8.00">tax_status</text>
<polygon fill="#dddddd" stroke="none" points="103,-370 103,-390 137,-390 137,-370 103,-370"/>
<text text-anchor="start" x="105" y="-378.4" font-family="Lato" font-size="8.00">string</text>
<polygon fill="#dddddd" stroke="none" points="137,-370 137,-390 338,-390 338,-370 137,-370"/>
<text text-anchor="start" x="139" y="-381.4" font-family="Lato" text-decoration="line-through" font-size="8.00">NULL</text>
<text text-anchor="start" x="160" y="-381.4" font-family="Lato" font-size="8.00">; DEPRECATED: Government assigned tax</text>
<text text-anchor="start" x="139" y="-373.4" font-family="Lato" font-size="8.00">designation for tax&#45;exempt organizations.</text>
<polygon fill="#dddddd" stroke="none" points="8,-342 8,-370 103,-370 103,-342 8,-342"/>
<text text-anchor="start" x="10" y="-355.4" font-family="Lato" font-weight="bold" font-size="8.00">tax_id</text>
<polygon fill="#dddddd" stroke="none" points="103,-342 103,-370 137,-370 137,-342 103,-342"/>
<text text-anchor="start" x="105" y="-354.4" font-family="Lato" font-size="8.00">string</text>
<polygon fill="#dddddd" stroke="none" points="137,-342 137,-370 338,-370 338,-342 137,-342"/>
<text text-anchor="start" x="139" y="-361.4" font-family="Lato" text-decoration="line-through" font-size="8.00">NULL</text>
<text text-anchor="start" x="160" y="-361.4" font-family="Lato" font-size="8.00">; DEPRECATED: A government issued</text>
<text text-anchor="start" x="139" y="-353.4" font-family="Lato" font-size="8.00">identifier used for the purpose of tax</text>
<text text-anchor="start" x="139" y="-345.4" font-family="Lato" font-size="8.00">administration.</text>
<polygon fill="#dddddd" stroke="none" points="8,-322 8,-342 103,-342 103,-322 8,-322"/>
<text text-anchor="start" x="10" y="-331.4" font-family="Lato" font-weight="bold" font-size="8.00">year_incorporated</text>
<polygon fill="#dddddd" stroke="none" points="103,-322 103,-342 137,-342 137,-322 103,-322"/>
<text text-anchor="start" x="105" y="-330.4" font-family="Lato" font-size="8.00">number</text>
<polygon fill="#dddddd" stroke="none" points="137,-322 137,-342 338,-342 338,-322 137,-322"/>
<text text-anchor="start" x="139" y="-333.4" font-family="Lato" text-decoration="line-through" font-size="8.00">NULL</text>
<text text-anchor="start" x="160" y="-333.4" font-family="Lato" font-size="8.00">; The year in which the organization</text>
<text text-anchor="start" x="139" y="-325.4" font-family="Lato" font-size="8.00">was legally formed.</text>
<polygon fill="#dddddd" stroke="none" points="8,-302 8,-322 103,-322 103,-302 8,-302"/>
<text text-anchor="start" x="10" y="-311.4" font-family="Lato" font-weight="bold" font-size="8.00">legal_status</text>
<polygon fill="#dddddd" stroke="none" points="103,-302 103,-322 137,-322 137,-302 103,-302"/>
<text text-anchor="start" x="105" y="-310.4" font-family="Lato" font-size="8.00">string</text>
<polygon fill="#dddddd" stroke="none" points="137,-302 137,-322 338,-322 338,-302 137,-302"/>
<text text-anchor="start" x="139" y="-313.4" font-family="Lato" text-decoration="line-through" font-size="8.00">NULL</text>
<text text-anchor="start" x="160" y="-313.4" font-family="Lato" font-size="8.00">; The legal conditions that an</text>
<text text-anchor="start" x="139" y="-305.4" font-family="Lato" font-size="8.00">organization is operating under.</text>
<polygon fill="#dddddd" stroke="none" points="8,-274 8,-302 103,-302 103,-274 8,-274"/>
<text text-anchor="start" x="10" y="-287.4" font-family="Lato" font-weight="bold" font-size="8.00">logo</text>
<polygon fill="#dddddd" stroke="none" points="103,-274 103,-302 137,-302 137,-274 103,-274"/>
<text text-anchor="start" x="105" y="-286.4" font-family="Lato" font-size="8.00">string</text>
<polygon fill="#dddddd" stroke="none" points="137,-274 137,-302 338,-302 338,-274 137,-274"/>
<text text-anchor="start" x="139" y="-293.4" font-family="Lato" text-decoration="line-through" font-size="8.00">NULL</text>
<text text-anchor="start" x="160" y="-293.4" font-family="Lato" font-size="8.00">; A URL to an image associated with the</text>
<text text-anchor="start" x="139" y="-285.4" font-family="Lato" font-size="8.00">organization which can be presented alongside its</text>
<text text-anchor="start" x="139" y="-277.4" font-family="Lato" font-size="8.00">name.</text>
<polygon fill="#dddddd" stroke="none" points="8,-222 8,-274 103,-274 103,-222 8,-222"/>
<text text-anchor="start" x="10" y="-247.4" font-family="Lato" font-weight="bold" font-size="8.00">uri</text>
<polygon fill="#dddddd" stroke="none" points="103,-222 103,-274 137,-274 137,-222 103,-222"/>
<text text-anchor="start" x="105" y="-246.4" font-family="Lato" font-size="8.00">string</text>
<polygon fill="#dddddd" stroke="none" points="137,-222 137,-274 338,-274 338,-222 137,-222"/>
<text text-anchor="start" x="139" y="-265.4" font-family="Lato" text-decoration="line-through" font-size="8.00">NULL</text>
<text text-anchor="start" x="160" y="-265.4" font-family="Lato" font-size="8.00">; A persistent identifier to uniquely</text>
<text text-anchor="start" x="139" y="-257.4" font-family="Lato" font-size="8.00">identify the organization such as those provided</text>
<text text-anchor="start" x="139" y="-249.4" font-family="Lato" font-size="8.00">by Open Corporates or some other relevant URI</text>
<text text-anchor="start" x="139" y="-241.4" font-family="Lato" font-size="8.00">provider. This is not for listing the website of</text>
<text text-anchor="start" x="139" y="-233.4" font-family="Lato" font-size="8.00">the organization: that can be done through the</text>
<text text-anchor="start" x="139" y="-225.4" font-family="Lato" font-size="8.00">website field of the Organization.</text>
<polygon fill="#dddddd" stroke="none" points="8,-202 8,-222 103,-222 103,-202 8,-202"/>
<text text-anchor="start" x="10" y="-211.4" font-family="Lato" font-weight="bold" font-size="8.00">parent_organization_id</text>
<polygon fill="#dddddd" stroke="none" points="103,-202 103,-222 137,-222 137,-202 103,-202"/>
<text text-anchor="start" x="105" y="-210.4" font-family="Lato" font-size="8.00">string</text>
<polygon fill="#dddddd" stroke="none" points="137,-202 137,-222 338,-222 338,-202 137,-202"/>
<text text-anchor="start" x="139" y="-213.4" font-family="Lato" text-decoration="line-through" font-size="8.00">NULL</text>
<text text-anchor="start" x="160" y="-213.4" font-family="Lato" font-size="8.00">; The identifier of the organization&#39;s</text>
<text text-anchor="start" x="139" y="-205.4" font-family="Lato" font-size="8.00">parent organization.</text>
</g>
<!-- service -->
<g id="service" class="node">
<title>service</title>
<style>@font-face{font-family:"Lato";font-style:normal;font-weight:400;src:local("Lato Regular"),local("Lato-Regular"),url(../_static/fonts/Lato-Regular.ttf) format("truetype")}</style><polygon fill="white" stroke="none" points="727,-910 383,-910 383,-372 727,-372 727,-910"/>
<polygon fill="black" stroke="none" points="391,-376 391,-906 719,-906 719,-376 391,-376"/>
<polygon fill="#77dd77" stroke="none" points="391,-876 391,-906 719,-906 719,-876 391,-876"/>
<text text-anchor="start" x="537" y="-895.5" font-family="Lato" font-weight="bold" font-size="10.00">service</text>
<text text-anchor="start" x="430.13" y="-887.4" font-family="Lato" font-size="8.00">The details of the services provided by organizations to a range of</text>
<text text-anchor="start" x="522.75" y="-879.4" font-family="Lato" font-size="8.00">different groups.</text>
<polygon fill="#dddddd" stroke="none" points="391,-848 391,-876 486,-876 486,-848 391,-848"/>
<text text-anchor="start" x="393" y="-861.4" font-family="Lato" font-weight="bold" font-size="8.00">id</text>
<polygon fill="#dddddd" stroke="none" points="486,-848 486,-876 524,-876 524,-848 486,-848"/>
<text text-anchor="start" x="488" y="-860.4" font-family="Lato" font-size="8.00">string</text>
<polygon fill="#dddddd" stroke="none" points="524,-848 524,-876 719,-876 719,-848 524,-848"/>
<text text-anchor="start" x="526" y="-866.4" font-family="Lato" font-size="8.00">UNIQ; The identifier for the service. Each service</text>
<text text-anchor="start" x="526" y="-854.4" font-family="Lato" font-size="8.00">must have a unique identifier.</text>
<polygon fill="#dddddd" stroke="none" points="391,-820 391,-848 486,-848 486,-820 391,-820"/>
<text text-anchor="start" x="393" y="-833.4" font-family="Lato" font-weight="bold" font-size="8.00">organization_id</text>
<polygon fill="#dddddd" stroke="none" points="486,-820 486,-848 524,-848 524,-820 486,-820"/>
<text text-anchor="start" x="488" y="-832.4" font-family="Lato" font-size="8.00">string</text>
<polygon fill="#dddddd" stroke="none" points="524,-820 524,-848 719,-848 719,-820 524,-820"/>
<text text-anchor="start" x="526" y="-838.4" font-family="Lato" font-size="8.00">The identifier of the organization that provides</text>
<text text-anchor="start" x="526" y="-826.4" font-family="Lato" font-size="8.00">this service.</text>
<polygon fill="#dddddd" stroke="none" points="391,-800 391,-820 486,-820 486,-800 391,-800"/>
<text text-anchor="start" x="393" y="-809.4" font-family="Lato" font-weight="bold" font-size="8.00">program_id</text>
<polygon fill="#dddddd" stroke="none" points="486,-800 486,-820 524,-820 524,-800 486,-800"/>
<text text-anchor="start" x="488" y="-808.4" font-family="Lato" font-size="8.00">string</text>
<polygon fill="#dddddd" stroke="none" points="524,-800 524,-820 719,-820 719,-800 524,-800"/>
<text text-anchor="start" x="526" y="-811.4" font-family="Lato" text-decoration="line-through" font-size="8.00">NULL</text>
<text text-anchor="start" x="547" y="-811.4" font-family="Lato" font-size="8.00">; The identifier of the program this</text>
<text text-anchor="start" x="526" y="-803.4" font-family="Lato" font-size="8.00">service is delivered under.</text>
<polygon fill="#dddddd" stroke="none" points="391,-784 391,-800 486,-800 486,-784 391,-784"/>
<text text-anchor="start" x="393" y="-791.4" font-family="Lato" font-weight="bold" font-size="8.00">name</text>
<polygon fill="#dddddd" stroke="none" points="486,-784 486,-800 524,-800 524,-784 486,-784"/>
<text text-anchor="start" x="488" y="-790.4" font-family="Lato" font-size="8.00">string</text>
<polygon fill="#dddddd" stroke="none" points="524,-784 524,-800 719,-800 719,-784 524,-784"/>
<text text-anchor="start" x="526" y="-790.4" font-family="Lato" font-size="8.00">The official or public name of the service.</text>
<polygon fill="#dddddd" stroke="none" points="391,-764 391,-784 486,-784 486,-764 391,-764"/>
<text text-anchor="start" x="393" y="-773.4" font-family="Lato" font-weight="bold" font-size="8.00">alternate_name</text>
<polygon fill="#dddddd" stroke="none" points="486,-764 486,-784 524,-784 524,-764 486,-764"/>
<text text-anchor="start" x="488" y="-772.4" font-family="Lato" font-size="8.00">string</text>
<polygon fill="#dddddd" stroke="none" points="524,-764 524,-784 719,-784 719,-764 524,-764"/>
<text text-anchor="start" x="526" y="-775.4" font-family="Lato" text-decoration="line-through" font-size="8.00">NULL</text>
<text text-anchor="start" x="547" y="-775.4" font-family="Lato" font-size="8.00">; An (optional) alternative name for</text>
<text text-anchor="start" x="526" y="-767.4" font-family="Lato" font-size="8.00">this service.</text>
<polygon fill="#dddddd" stroke="none" points="391,-744 391,-764 486,-764 486,-744 391,-744"/>
<text text-anchor="start" x="393" y="-753.4" font-family="Lato" font-weight="bold" font-size="8.00">description</text>
<polygon fill="#dddddd" stroke="none" points="486,-744 486,-764 524,-764 524,-744 486,-744"/>
<text text-anchor="start" x="488" y="-752.4" font-family="Lato" font-size="8.00">string</text>
<polygon fill="#dddddd" stroke="none" points="524,-744 524,-764 719,-764 719,-744 524,-744"/>
<text text-anchor="start" x="526" y="-755.4" font-family="Lato" text-decoration="line-through" font-size="8.00">NULL</text>
<text text-anchor="start" x="547" y="-755.4" font-family="Lato" font-size="8.00">; A free text description of the</text>
<text text-anchor="start" x="526" y="-747.4" font-family="Lato" font-size="8.00">service.</text>
<polygon fill="#dddddd" stroke="none" points="391,-728 391,-744 486,-744 486,-728 391,-728"/>
<text text-anchor="start" x="393" y="-735.4" font-family="Lato" font-weight="bold" font-size="8.00">url</text>
<polygon fill="#dddddd" stroke="none" points="486,-728 486,-744 524,-744 524,-728 486,-728"/>
<text text-anchor="start" x="488" y="-734.4" font-family="Lato" font-size="8.00">string</text>
<polygon fill="#dddddd" stroke="none" points="524,-728 524,-744 719,-744 719,-728 524,-728"/>
<text text-anchor="start" x="526" y="-735.4" font-family="Lato" text-decoration="line-through" font-size="8.00">NULL</text>
<text text-anchor="start" x="547" y="-735.4" font-family="Lato" font-size="8.00">; URL of the service</text>
<polygon fill="#dddddd" stroke="none" points="391,-708 391,-728 486,-728 486,-708 391,-708"/>
<text text-anchor="start" x="393" y="-717.4" font-family="Lato" font-weight="bold" font-size="8.00">email</text>
<polygon fill="#dddddd" stroke="none" points="486,-708 486,-728 524,-728 524,-708 486,-708"/>
<text text-anchor="start" x="488" y="-716.4" font-family="Lato" font-size="8.00">string</text>
<polygon fill="#dddddd" stroke="none" points="524,-708 524,-728 719,-728 719,-708 524,-708"/>
<text text-anchor="start" x="526" y="-719.4" font-family="Lato" text-decoration="line-through" font-size="8.00">NULL</text>
<text text-anchor="start" x="547" y="-719.4" font-family="Lato" font-size="8.00">; An email address which can be used to</text>
<text text-anchor="start" x="526" y="-711.4" font-family="Lato" font-size="8.00">contact the service provider.</text>
<polygon fill="#dddddd" stroke="none" points="391,-680 391,-708 486,-708 486,-680 391,-680"/>
<text text-anchor="start" x="393" y="-693.4" font-family="Lato" font-weight="bold" font-size="8.00">status</text>
<polygon fill="#dddddd" stroke="none" points="486,-680 486,-708 524,-708 524,-680 486,-680"/>
<text text-anchor="start" x="488" y="-692.4" font-family="Lato" font-size="8.00">string</text>
<polygon fill="#dddddd" stroke="none" points="524,-680 524,-708 719,-708 719,-680 524,-680"/>
<text text-anchor="start" x="526" y="-698.4" font-family="Lato" font-size="8.00">The current status of the service which can be</text>
<text text-anchor="start" x="526" y="-686.4" font-family="Lato" font-size="8.00">active, inactive, defunct, or temporarily closed.</text>
<polygon fill="#dddddd" stroke="none" points="391,-652 391,-680 486,-680 486,-652 391,-652"/>
<text text-anchor="start" x="393" y="-665.4" font-family="Lato" font-weight="bold" font-size="8.00">interpretation_services</text>
<polygon fill="#dddddd" stroke="none" points="486,-652 486,-680 524,-680 524,-652 486,-652"/>
<text text-anchor="start" x="488" y="-664.4" font-family="Lato" font-size="8.00">string</text>
<polygon fill="#dddddd" stroke="none" points="524,-652 524,-680 719,-680 719,-652 524,-652"/>
<text text-anchor="start" x="526" y="-671.4" font-family="Lato" text-decoration="line-through" font-size="8.00">NULL</text>
<text text-anchor="start" x="547" y="-671.4" font-family="Lato" font-size="8.00">; A free text description of any</text>
<text text-anchor="start" x="526" y="-663.4" font-family="Lato" font-size="8.00">interpretation services available for accessing</text>
<text text-anchor="start" x="526" y="-655.4" font-family="Lato" font-size="8.00">this service.</text>
<polygon fill="#dddddd" stroke="none" points="391,-632 391,-652 486,-652 486,-632 391,-632"/>
<text text-anchor="start" x="393" y="-641.4" font-family="Lato" font-weight="bold" font-size="8.00">application_process</text>
<polygon fill="#dddddd" stroke="none" points="486,-632 486,-652 524,-652 524,-632 486,-632"/>
<text text-anchor="start" x="488" y="-640.4" font-family="Lato" font-size="8.00">string</text>
<polygon fill="#dddddd" stroke="none" points="524,-632 524,-652 719,-652 719,-632 524,-632"/>
<text text-anchor="start" x="526" y="-643.4" font-family="Lato" text-decoration="line-through" font-size="8.00">NULL</text>
<text text-anchor="start" x="547" y="-643.4" font-family="Lato" font-size="8.00">; A free text description of the steps</text>
<text text-anchor="start" x="526" y="-635.4" font-family="Lato" font-size="8.00">needed to access this service.</text>
<polygon fill="#dddddd" stroke="none" points="391,-612 391,-632 486,-632 486,-612 391,-612"/>
<text text-anchor="start" x="393" y="-621.4" font-family="Lato" font-weight="bold" font-size="8.00">wait_time</text>
<polygon fill="#dddddd" stroke="none" points="486,-612 486,-632 524,-632 524,-612 486,-612"/>
<text text-anchor="start" x="488" y="-620.4" font-family="Lato" font-size="8.00">string</text>
<polygon fill="#dddddd" stroke="none" points="524,-612 524,-632 719,-632 719,-612 524,-612"/>
<text text-anchor="start" x="526" y="-623.4" font-family="Lato" text-decoration="line-through" font-size="8.00">NULL</text>
<text text-anchor="start" x="547" y="-623.4" font-family="Lato" font-size="8.00">; DEPRECATED: The time a client may</text>
<text text-anchor="start" x="526" y="-615.4" font-family="Lato" font-size="8.00">expect to wait before receiving a service.</text>
<polygon fill="#dddddd" stroke="none" points="391,-568 391,-612 486,-612 486,-568 391,-568"/>
<text text-anchor="start" x="393" y="-589.4" font-family="Lato" font-weight="bold" font-size="8.00">accreditations</text>
<polygon fill="#dddddd" stroke="none" points="486,-568 486,-612 524,-612 524,-568 486,-568"/>
<text text-anchor="start" x="488" y="-588.4" font-family="Lato" font-size="8.00">string</text>
<polygon fill="#dddddd" stroke="none" points="524,-568 524,-612 719,-612 719,-568 524,-568"/>
<text text-anchor="start" x="526" y="-603.4" font-family="Lato" text-decoration="line-through" font-size="8.00">NULL</text>
<text text-anchor="start" x="547" y="-603.4" font-family="Lato" font-size="8.00">; A free text description of any</text>
<text text-anchor="start" x="526" y="-595.4" font-family="Lato" font-size="8.00">accreditations. Accreditation is the formal</text>
<text text-anchor="start" x="526" y="-587.4" font-family="Lato" font-size="8.00">evaluation of an organization or program against</text>
<text text-anchor="start" x="526" y="-579.4" font-family="Lato" font-size="8.00">best practice standards set by an accrediting</text>
<text text-anchor="start" x="526" y="-571.4" font-family="Lato" font-size="8.00">organization.</text>
<polygon fill="#dddddd" stroke="none" points="391,-548 391,-568 486,-568 486,-548 391,-548"/>
<text text-anchor="start" x="393" y="-557.4" font-family="Lato" font-weight="bold" font-size="8.00">eligibility_description</text>
<polygon fill="#dddddd" stroke="none" points="486,-548 486,-568 524,-568 524,-548 486,-548"/>
<text text-anchor="start" x="488" y="-556.4" font-family="Lato" font-size="8.00">string</text>
<polygon fill="#dddddd" stroke="none" points="524,-548 524,-568 719,-568 719,-548 524,-548"/>
<text text-anchor="start" x="526" y="-559.4" font-family="Lato" text-decoration="line-through" font-size="8.00">NULL</text>
<text text-anchor="start" x="547" y="-559.4" font-family="Lato" font-size="8.00">; A free text description of the type</text>
<text text-anchor="start" x="526" y="-551.4" font-family="Lato" font-size="8.00">of person for whom this service is intended.</text>
<polygon fill="#dddddd" stroke="none" points="391,-528 391,-548 486,-548 486,-528 391,-528"/>
<text text-anchor="start" x="393" y="-537.4" font-family="Lato" font-weight="bold" font-size="8.00">minimum_age</text>
<polygon fill="#dddddd" stroke="none" points="486,-528 486,-548 524,-548 524,-528 486,-528"/>
<text text-anchor="start" x="488" y="-536.4" font-family="Lato" font-size="8.00">number</text>
<polygon fill="#dddddd" stroke="none" points="524,-528 524,-548 719,-548 719,-528 524,-528"/>
<text text-anchor="start" x="526" y="-539.4" font-family="Lato" text-decoration="line-through" font-size="8.00">NULL</text>
<text text-anchor="start" x="547" y="-539.4" font-family="Lato" font-size="8.00">; The minimum age of a person required</text>
<text text-anchor="start" x="526" y="-531.4" font-family="Lato" font-size="8.00">to meet this eligibility requirement.</text>
<polygon fill="#dddddd" stroke="none" points="391,-508 391,-528 486,-528 486,-508 391,-508"/>
<text text-anchor="start" x="393" y="-517.4" font-family="Lato" font-weight="bold" font-size="8.00">maximum_age</text>
<polygon fill="#dddddd" stroke="none" points="486,-508 486,-528 524,-528 524,-508 486,-508"/>
<text text-anchor="start" x="488" y="-516.4" font-family="Lato" font-size="8.00">number</text>
<polygon fill="#dddddd" stroke="none" points="524,-508 524,-528 719,-528 719,-508 524,-508"/>
<text text-anchor="start" x="526" y="-519.4" font-family="Lato" text-decoration="line-through" font-size="8.00">NULL</text>
<text text-anchor="start" x="547" y="-519.4" font-family="Lato" font-size="8.00">; The maximum age of a person required</text>
<text text-anchor="start" x="526" y="-511.4" font-family="Lato" font-size="8.00">to meet this eligibility requirement.</text>
<polygon fill="#dddddd" stroke="none" points="391,-488 391,-508 486,-508 486,-488 391,-488"/>
<text text-anchor="start" x="393" y="-497.4" font-family="Lato" font-weight="bold" font-size="8.00">assured_date</text>
<polygon fill="#dddddd" stroke="none" points="486,-488 486,-508 524,-508 524,-488 486,-488"/>
<text text-anchor="start" x="488" y="-496.4" font-family="Lato" font-size="8.00">date</text>
<polygon fill="#dddddd" stroke="none" points="524,-488 524,-508 719,-508 719,-488 524,-488"/>
<text text-anchor="start" x="526" y="-499.4" font-family="Lato" text-decoration="line-through" font-size="8.00">NULL</text>
<text text-anchor="start" x="547" y="-499.4" font-family="Lato" font-size="8.00">; The date that the information about</text>
<text text-anchor="start" x="526" y="-491.4" font-family="Lato" font-size="8.00">the service was last checked.</text>
<polygon fill="#dddddd" stroke="none" points="391,-460 391,-488 486,-488 486,-460 391,-460"/>
<text text-anchor="start" x="393" y="-473.4" font-family="Lato" font-weight="bold" font-size="8.00">assurer_email</text>
<polygon fill="#dddddd" stroke="none" points="486,-460 486,-488 524,-488 524,-460 486,-460"/>
<text text-anchor="start" x="488" y="-472.4" font-family="Lato" font-size="8.00">string</text>
<polygon fill="#dddddd" stroke="none" points="524,-460 524,-488 719,-488 719,-460 524,-460"/>
<text text-anchor="start" x="526" y="-479.4" font-family="Lato" text-decoration="line-through" font-size="8.00">NULL</text>
<text text-anchor="start" x="547" y="-479.4" font-family="Lato" font-size="8.00">; The contact e&#45;mail address for the</text>
<text text-anchor="start" x="526" y="-471.4" font-family="Lato" font-size="8.00">person or organization which last assured the</text>
<text text-anchor="start" x="526" y="-463.4" font-family="Lato" font-size="8.00">service.</text>
<polygon fill="#dddddd" stroke="none" points="391,-424 391,-460 486,-460 486,-424 391,-424"/>
<text text-anchor="start" x="393" y="-441.4" font-family="Lato" font-weight="bold" font-size="8.00">licenses</text>
<polygon fill="#dddddd" stroke="none" points="486,-424 486,-460 524,-460 524,-424 486,-424"/>
<text text-anchor="start" x="488" y="-440.4" font-family="Lato" font-size="8.00">string</text>
<polygon fill="#dddddd" stroke="none" points="524,-424 524,-460 719,-460 719,-424 524,-424"/>
<text text-anchor="start" x="526" y="-451.4" font-family="Lato" text-decoration="line-through" font-size="8.00">NULL</text>
<text text-anchor="start" x="547" y="-451.4" font-family="Lato" font-size="8.00">; DEPRECATED: An organization may have</text>
<text text-anchor="start" x="526" y="-443.4" font-family="Lato" font-size="8.00">a license issued by a government entity to operate</text>
<text text-anchor="start" x="526" y="-435.4" font-family="Lato" font-size="8.00">legally. A list of any such licenses can be</text>
<text text-anchor="start" x="526" y="-427.4" font-family="Lato" font-size="8.00">provided here.</text>
<polygon fill="#dddddd" stroke="none" points="391,-404 391,-424 486,-424 486,-404 391,-404"/>
<text text-anchor="start" x="393" y="-413.4" font-family="Lato" font-weight="bold" font-size="8.00">alert</text>
<polygon fill="#dddddd" stroke="none" points="486,-404 486,-424 524,-424 524,-404 486,-404"/>
<text text-anchor="start" x="488" y="-412.4" font-family="Lato" font-size="8.00">string</text>
<polygon fill="#dddddd" stroke="none" points="524,-404 524,-424 719,-424 719,-404 524,-404"/>
<text text-anchor="start" x="526" y="-415.4" font-family="Lato" text-decoration="line-through" font-size="8.00">NULL</text>
<text text-anchor="start" x="547" y="-415.4" font-family="Lato" font-size="8.00">; A description of any short term</text>
<text text-anchor="start" x="526" y="-407.4" font-family="Lato" font-size="8.00">alerts concerning the service.</text>
<polygon fill="#dddddd" stroke="none" points="391,-376 391,-404 486,-404 486,-376 391,-376"/>
<text text-anchor="start" x="393" y="-389.4" font-family="Lato" font-weight="bold" font-size="8.00">last_modified</text>
<polygon fill="#dddddd" stroke="none" points="486,-376 486,-404 524,-404 524,-376 486,-376"/>
<text text-anchor="start" x="488" y="-388.4" font-family="Lato" font-size="8.00">datetime</text>
<polygon fill="#dddddd" stroke="none" points="524,-376 524,-404 719,-404 719,-376 524,-376"/>
<text text-anchor="start" x="526" y="-395.4" font-family="Lato" text-decoration="line-through" font-size="8.00">NULL</text>
<text text-anchor="start" x="547" y="-395.4" font-family="Lato" font-size="8.00">; The datetime when the service, or any</text>
<text text-anchor="start" x="526" y="-387.4" font-family="Lato" font-size="8.00">related information about the service, has</text>
<text text-anchor="start" x="526" y="-379.4" font-family="Lato" font-size="8.00">changed. Should have millisecond accuracy.</text>
</g>
<!-- service&#45;&gt;organization -->
<g id="edge1" class="edge">
<title>service:i2&#45;&gt;organization:f1</title>
<style>@font-face{font-family:"Lato";font-style:normal;font-weight:400;src:local("Lato Regular"),local("Lato-Regular"),url(../_static/fonts/Lato-Regular.ttf) format("truetype")}</style><path fill="none" stroke="black" d="M390,-834C248.62,-834 480.38,-520 339,-520"/>
</g>
<!-- location -->
<g id="location" class="node">
<title>location</title>
<style>@font-face{font-family:"Lato";font-style:normal;font-weight:400;src:local("Lato Regular"),local("Lato-Regular"),url(../_static/fonts/Lato-Regular.ttf) format("truetype")}</style><polygon fill="white" stroke="none" points="728,-354 382,-354 382,0 728,0 728,-354"/>
<polygon fill="black" stroke="none" points="390,-4 390,-350 720,-350 720,-4 390,-4"/>
<polygon fill="#77dd77" stroke="none" points="390,-320 390,-350 720,-350 720,-320 390,-320"/>
<text text-anchor="start" x="534.75" y="-339.5" font-family="Lato" font-weight="bold" font-size="10.00">location</text>
<text text-anchor="start" x="424.88" y="-331.4" font-family="Lato" font-size="8.00">The locations where organizations operate. Locations may be virtual,</text>
<text text-anchor="start" x="464.25" y="-323.4" font-family="Lato" font-size="8.00">and one organization may have many locations.</text>
<polygon fill="#dddddd" stroke="none" points="390,-292 390,-320 487,-320 487,-292 390,-292"/>
<text text-anchor="start" x="392" y="-305.4" font-family="Lato" font-weight="bold" font-size="8.00">id</text>
<polygon fill="#dddddd" stroke="none" points="487,-292 487,-320 521,-320 521,-292 487,-292"/>
<text text-anchor="start" x="489" y="-304.4" font-family="Lato" font-size="8.00">string</text>
<polygon fill="#dddddd" stroke="none" points="521,-292 521,-320 720,-320 720,-292 521,-292"/>
<text text-anchor="start" x="523" y="-310.4" font-family="Lato" font-size="8.00">UNIQ; The identifier of the location. Each</text>
<text text-anchor="start" x="523" y="-298.4" font-family="Lato" font-size="8.00">location must have a unique identifier.</text>
<polygon fill="#dddddd" stroke="none" points="390,-264 390,-292 487,-292 487,-264 390,-264"/>
<text text-anchor="start" x="392" y="-277.4" font-family="Lato" font-weight="bold" font-size="8.00">location_type</text>
<polygon fill="#dddddd" stroke="none" points="487,-264 487,-292 521,-292 521,-264 487,-264"/>
<text text-anchor="start" x="489" y="-276.4" font-family="Lato" font-size="8.00">string</text>
<polygon fill="#dddddd" stroke="none" points="521,-264 521,-292 720,-292 720,-264 521,-264"/>
<text text-anchor="start" x="523" y="-282.4" font-family="Lato" font-size="8.00">The type of location, which may be either</text>
<text text-anchor="start" x="523" y="-270.4" font-family="Lato" font-size="8.00">physical, postal, or virtual.</text>
<polygon fill="#dddddd" stroke="none" points="390,-236 390,-264 487,-264 487,-236 390,-236"/>
<text text-anchor="start" x="392" y="-249.4" font-family="Lato" font-weight="bold" font-size="8.00">url</text>
<polygon fill="#dddddd" stroke="none" points="487,-236 487,-264 521,-264 521,-236 487,-236"/>
<text text-anchor="start" x="489" y="-248.4" font-family="Lato" font-size="8.00">string</text>
<polygon fill="#dddddd" stroke="none" points="521,-236 521,-264 720,-264 720,-236 521,-236"/>
<text text-anchor="start" x="523" y="-255.4" font-family="Lato" text-decoration="line-through" font-size="8.00">NULL</text>
<text text-anchor="start" x="544" y="-255.4" font-family="Lato" font-size="8.00">; If location_type is virtual, then</text>
<text text-anchor="start" x="523" y="-247.4" font-family="Lato" font-size="8.00">this field represents the URL of a virtual</text>
<text text-anchor="start" x="523" y="-239.4" font-family="Lato" font-size="8.00">location.</text>
<polygon fill="#dddddd" stroke="none" points="390,-176 390,-236 487,-236 487,-176 390,-176"/>
<text text-anchor="start" x="392" y="-205.4" font-family="Lato" font-weight="bold" font-size="8.00">organization_id</text>
<polygon fill="#dddddd" stroke="none" points="487,-176 487,-236 521,-236 521,-176 487,-176"/>
<text text-anchor="start" x="489" y="-204.4" font-family="Lato" font-size="8.00">string</text>
<polygon fill="#dddddd" stroke="none" points="521,-176 521,-236 720,-236 720,-176 521,-176"/>
<text text-anchor="start" x="523" y="-227.4" font-family="Lato" text-decoration="line-through" font-size="8.00">NULL</text>
<text text-anchor="start" x="544" y="-227.4" font-family="Lato" font-size="8.00">; The organization identifier for a</text>
<text text-anchor="start" x="523" y="-219.4" font-family="Lato" font-size="8.00">location. This is the organization that is</text>
<text text-anchor="start" x="523" y="-211.4" font-family="Lato" font-size="8.00">responsible for maintaining information about this</text>
<text text-anchor="start" x="523" y="-203.4" font-family="Lato" font-size="8.00">location. The identifier of the organization</text>
<text text-anchor="start" x="523" y="-195.4" font-family="Lato" font-size="8.00">should be given here. Details of the services the</text>
<text text-anchor="start" x="523" y="-187.4" font-family="Lato" font-size="8.00">organization delivers at this location should be</text>
<text text-anchor="start" x="523" y="-179.4" font-family="Lato" font-size="8.00">provided in the services_at_location table.</text>
<polygon fill="#dddddd" stroke="none" points="390,-160 390,-176 487,-176 487,-160 390,-160"/>
<text text-anchor="start" x="392" y="-167.4" font-family="Lato" font-weight="bold" font-size="8.00">name</text>
<polygon fill="#dddddd" stroke="none" points="487,-160 487,-176 521,-176 521,-160 487,-160"/>
<text text-anchor="start" x="489" y="-166.4" font-family="Lato" font-size="8.00">string</text>
<polygon fill="#dddddd" stroke="none" points="521,-160 521,-176 720,-176 720,-160 521,-160"/>
<text text-anchor="start" x="523" y="-167.4" font-family="Lato" text-decoration="line-through" font-size="8.00">NULL</text>
<text text-anchor="start" x="544" y="-167.4" font-family="Lato" font-size="8.00">; The name of the location.</text>
<polygon fill="#dddddd" stroke="none" points="390,-140 390,-160 487,-160 487,-140 390,-140"/>
<text text-anchor="start" x="392" y="-149.4" font-family="Lato" font-weight="bold" font-size="8.00">alternate_name</text>
<polygon fill="#dddddd" stroke="none" points="487,-140 487,-160 521,-160 521,-140 487,-140"/>
<text text-anchor="start" x="489" y="-148.4" font-family="Lato" font-size="8.00">string</text>
<polygon fill="#dddddd" stroke="none" points="521,-140 521,-160 720,-160 720,-140 521,-140"/>
<text text-anchor="start" x="523" y="-151.4" font-family="Lato" text-decoration="line-through" font-size="8.00">NULL</text>
<text text-anchor="start" x="544" y="-151.4" font-family="Lato" font-size="8.00">; An (optional) alternative name of the</text>
<text text-anchor="start" x="523" y="-143.4" font-family="Lato" font-size="8.00">location.</text>
<polygon fill="#dddddd" stroke="none" points="390,-120 390,-140 487,-140 487,-120 390,-120"/>
<text text-anchor="start" x="392" y="-129.4" font-family="Lato" font-weight="bold" font-size="8.00">description</text>
<polygon fill="#dddddd" stroke="none" points="487,-120 487,-140 521,-140 521,-120 487,-120"/>
<text text-anchor="start" x="489" y="-128.4" font-family="Lato" font-size="8.00">string</text>
<polygon fill="#dddddd" stroke="none" points="521,-120 521,-140 720,-140 720,-120 521,-120"/>
<text text-anchor="start" x="523" y="-131.4" font-family="Lato" text-decoration="line-through" font-size="8.00">NULL</text>
<text text-anchor="start" x="544" y="-131.4" font-family="Lato" font-size="8.00">; A free text description of the</text>
<text text-anchor="start" x="523" y="-123.4" font-family="Lato" font-size="8.00">location.</text>
<polygon fill="#dddddd" stroke="none" points="390,-92 390,-120 487,-120 487,-92 390,-92"/>
<text text-anchor="start" x="392" y="-105.4" font-family="Lato" font-weight="bold" font-size="8.00">transportation</text>
<polygon fill="#dddddd" stroke="none" points="487,-92 487,-120 521,-120 521,-92 487,-92"/>
<text text-anchor="start" x="489" y="-104.4" font-family="Lato" font-size="8.00">string</text>
<polygon fill="#dddddd" stroke="none" points="521,-92 521,-120 720,-120 720,-92 521,-92"/>
<text text-anchor="start" x="523" y="-111.4" font-family="Lato" text-decoration="line-through" font-size="8.00">NULL</text>
<text text-anchor="start" x="544" y="-111.4" font-family="Lato" font-size="8.00">; A free text description of the access</text>
<text text-anchor="start" x="523" y="-103.4" font-family="Lato" font-size="8.00">to public or private transportation to and from</text>
<text text-anchor="start" x="523" y="-95.4" font-family="Lato" font-size="8.00">the location.</text>
<polygon fill="#dddddd" stroke="none" points="390,-72 390,-92 487,-92 487,-72 390,-72"/>
<text text-anchor="start" x="392" y="-81.4" font-family="Lato" font-weight="bold" font-size="8.00">latitude</text>
<polygon fill="#dddddd" stroke="none" points="487,-72 487,-92 521,-92 521,-72 487,-72"/>
<text text-anchor="start" x="489" y="-80.4" font-family="Lato" font-size="8.00">number</text>
<polygon fill="#dddddd" stroke="none" points="521,-72 521,-92 720,-92 720,-72 521,-72"/>
<text text-anchor="start" x="523" y="-83.4" font-family="Lato" text-decoration="line-through" font-size="8.00">NULL</text>
<text text-anchor="start" x="544" y="-83.4" font-family="Lato" font-size="8.00">; The latitude of the location</text>
<text text-anchor="start" x="523" y="-75.4" font-family="Lato" font-size="8.00">expressed in decimal degrees in WGS84 datum.</text>
<polygon fill="#dddddd" stroke="none" points="390,-52 390,-72 487,-72 487,-52 390,-52"/>
<text text-anchor="start" x="392" y="-61.4" font-family="Lato" font-weight="bold" font-size="8.00">longitude</text>
<polygon fill="#dddddd" stroke="none" points="487,-52 487,-72 521,-72 521,-52 487,-52"/>
<text text-anchor="start" x="489" y="-60.4" font-family="Lato" font-size="8.00">number</text>
<polygon fill="#dddddd" stroke="none" points="521,-52 521,-72 720,-72 720,-52 521,-52"/>
<text text-anchor="start" x="523" y="-63.4" font-family="Lato" text-decoration="line-through" font-size="8.00">NULL</text>
<text text-anchor="start" x="544" y="-63.4" font-family="Lato" font-size="8.00">; The longitude of the location</text>
<text text-anchor="start" x="523" y="-55.4" font-family="Lato" font-size="8.00">expressed in decimal degrees in WGS84 datum.</text>
<polygon fill="#dddddd" stroke="none" points="390,-24 390,-52 487,-52 487,-24 390,-24"/>
<text text-anchor="start" x="392" y="-37.4" font-family="Lato" font-weight="bold" font-size="8.00">external_identifier</text>
<polygon fill="#dddddd" stroke="none" points="487,-24 487,-52 521,-52 521,-24 487,-24"/>
<text text-anchor="start" x="489" y="-36.4" font-family="Lato" font-size="8.00">string</text>
<polygon fill="#dddddd" stroke="none" points="521,-24 521,-52 720,-52 720,-24 521,-24"/>
<text text-anchor="start" x="523" y="-43.4" font-family="Lato" text-decoration="line-through" font-size="8.00">NULL</text>
<text text-anchor="start" x="544" y="-43.4" font-family="Lato" font-size="8.00">; A third party identifier for the</text>
<text text-anchor="start" x="523" y="-35.4" font-family="Lato" font-size="8.00">location, which can be drawn from other services</text>
<text text-anchor="start" x="523" y="-27.4" font-family="Lato" font-size="8.00">e.g. UK UPRN.</text>
<polygon fill="#dddddd" stroke="none" points="390,-4 390,-24 487,-24 487,-4 390,-4"/>
<text text-anchor="start" x="392" y="-13.4" font-family="Lato" font-weight="bold" font-size="8.00">external_identifier_type</text>
<polygon fill="#dddddd" stroke="none" points="487,-4 487,-24 521,-24 521,-4 487,-4"/>
<text text-anchor="start" x="489" y="-12.4" font-family="Lato" font-size="8.00">string</text>
<polygon fill="#dddddd" stroke="none" points="521,-4 521,-24 720,-24 720,-4 521,-4"/>
<text text-anchor="start" x="523" y="-15.4" font-family="Lato" text-decoration="line-through" font-size="8.00">NULL</text>
<text text-anchor="start" x="544" y="-15.4" font-family="Lato" font-size="8.00">; The scheme used for the location&#39;s</text>
<text text-anchor="start" x="523" y="-7.4" font-family="Lato" font-size="8.00">external_identifier e.g. UK UPRN.</text>
</g>
<!-- location&#45;&gt;organization -->
<g id="edge2" class="edge">
<title>location:i4&#45;&gt;organization:f1</title>
<style>@font-face{font-family:"Lato";font-style:normal;font-weight:400;src:local("Lato Regular"),local("Lato-Regular"),url(../_static/fonts/Lato-Regular.ttf) format("truetype")}</style><path fill="none" stroke="black" d="M389,-206C318.34,-206 409.66,-520 339,-520"/>
</g>
</g>
</svg>

